<svg width="58" height="80" viewBox="0 0 58 80" fill="none" xmlns="http://www.w3.org/2000/svg">
<g clip-path="url(#clip0_950_1570)">
<path d="M58 77.7778H0V80H58V77.7778Z" fill="#0C031B"/>
<path d="M8.96101 48.1844V49.7868H5.45112V60.8422H3.51968V49.7868H0V48.1844H8.96101ZM23.8169 60.8422L22.6601 57.8881H16.4637L15.3068 60.8422H13.2773L18.3854 48.1844H20.7384L25.8465 60.8422H23.8169ZM17.0718 56.3304H22.0524L19.5621 49.9477L17.0718 56.3304ZM36.085 61.0123C33.1928 61.0123 31.0751 59.7501 30.6045 57.6016L32.5947 57.1719C32.9084 58.649 34.3104 59.4994 36.1536 59.4994C37.634 59.4994 39.0556 58.9444 39.0262 57.4225C39.0066 55.9186 37.2222 55.5069 35.33 55.0324C33.183 54.4953 31.0358 53.8777 31.0358 51.5501C31.0358 49.1958 33.1633 48.0142 35.683 48.0142C38.1242 48.0142 40.3203 48.9541 40.8397 51.1294L38.9476 51.5681C38.6044 50.1626 37.3201 49.536 35.771 49.536C34.3789 49.536 32.9965 50.091 32.9965 51.5323C32.9965 52.8393 34.5455 53.2242 36.3005 53.6539C38.5064 54.1999 41.0359 54.8266 41.0359 57.3689C41.0359 59.9291 38.6831 61.0123 36.085 61.0123ZM55.4996 60.8422L50.6367 55.0681H49.4406V60.8422H47.4896V48.1844H49.4406V53.4749H50.6171L55.3428 48.1844H57.7349L52.3036 54.2179L58 60.8422H55.4996Z" fill="#0C031B"/>
<path d="M5.30908 64.0562H6.48822V71.7062H5.30908V68.352H1.19101V71.7062H0V64.0562H1.19101V67.3944H5.30908V64.0562ZM16.4267 71.7062L15.7275 69.9208H11.9826L11.2834 71.7062H10.0568L13.144 64.0562H14.5661L17.6533 71.7062H16.4267ZM12.3501 68.9794H15.3602L13.8552 65.1219L12.3501 68.9794ZM25.7373 71.7062L23.5686 68.2653H22.3954V71.7062H21.2163V64.0562H24.0368C25.7907 64.0562 26.5906 65.0354 26.5906 66.2365C26.5906 67.3023 25.9033 68.0435 24.7537 68.2221L27.118 71.7063L25.7373 71.7062ZM22.3953 64.9866V67.4429H23.8766C24.9669 67.4429 25.4587 66.9451 25.4587 66.2202C25.4587 65.506 24.9669 64.9866 23.8766 64.9866H22.3953ZM34.8579 67.7027C35.8475 67.9299 36.5111 68.5521 36.5111 69.6179C36.5111 70.846 35.5986 71.7063 34.0935 71.7063H30.7991V64.0562H33.3708C34.9173 64.0562 35.895 64.8786 35.895 66.0905C35.895 66.8155 35.5334 67.4105 34.8579 67.7027ZM34.7927 66.1606C34.7927 65.5005 34.2713 64.9866 33.3647 64.9866H31.9426V67.3671H33.5484C34.3068 67.3671 34.7927 66.8261 34.7927 66.1606ZM33.8923 70.7594C34.8463 70.7594 35.3618 70.1751 35.3618 69.5097C35.3618 68.8063 34.8226 68.2437 33.8212 68.2437H31.9429V70.7594H33.8923ZM43.9848 71.809C41.6087 71.809 39.7954 70.3158 39.7954 67.8758C39.7954 65.4412 41.6086 63.9534 43.9848 63.9534C46.349 63.9534 48.1681 65.4413 48.1681 67.8758C48.1681 70.3159 46.349 71.809 43.9848 71.809ZM43.9848 70.7973C45.6616 70.7973 46.9889 69.7369 46.9889 67.8757C46.9889 66.0308 45.6616 64.9705 43.9848 64.9705C42.3019 64.9705 40.9687 66.0309 40.9687 67.8757C40.9687 69.7369 42.3019 70.7973 43.9848 70.7973ZM56.6194 71.7062L54.4507 68.2653H53.2774V71.7062H52.0983V64.0562H54.9188C56.6727 64.0562 57.4726 65.0354 57.4726 66.2365C57.4726 67.3023 56.7853 68.0435 55.6358 68.2221L58 71.7063L56.6194 71.7062ZM53.2773 64.9866V67.4429H54.7586C55.8489 67.4429 56.3407 66.9451 56.3407 66.2202C56.3407 65.506 55.8489 64.9866 54.7586 64.9866H53.2773Z" fill="#5418C3"/>
<path d="M32.8079 0.888885H24.8709L4.46153 33.9131M32.8079 0.888885L53.2172 33.9131L48.6818 40.0286M32.8079 0.888885L16.9339 27.1859H24.325M4.46153 33.9131H37.3433L28.8394 20.4588M4.46153 33.9131L8.43002 40.0286H48.6818M28.8394 20.4588L32.8079 14.3432L48.6818 40.0286M28.8394 20.4588L24.325 27.1859M24.325 27.1859H32.8079" stroke="#BA9BF3" stroke-width="2" stroke-linecap="round" stroke-linejoin="round"/>
</g>
<defs>
<clipPath id="clip0_950_1570">
<rect width="58" height="80" fill="white"/>
</clipPath>
</defs>
</svg>
