<svg width="465" height="596" viewBox="0 0 465 596" fill="none" xmlns="http://www.w3.org/2000/svg">
<path d="M-0.893799 427.933V-2.66055H263.359C263.359 -2.66055 404.422 140.722 425.195 192.376C445.968 244.029 419.881 322.845 341.137 356.242C262.393 389.639 216.499 404.333 147.416 427.933C78.3337 451.534 55.5521 457.895 -0.893799 427.933Z" fill="#82DDFF"/>
<path d="M442.866 89.0839C415.551 35.1952 388.235 -2.66055 388.235 -2.66055H-0.893799V514.85C18.4066 576.096 71.4688 600.359 126.1 594.124C180.732 587.889 242.416 542.194 253.094 449.827C263.772 357.459 253.094 319.781 253.094 277.026C253.094 234.272 277.055 201.315 328.811 209.777C380.567 218.239 411.238 226.255 442.866 209.777C474.495 193.299 470.182 142.973 442.866 89.0839Z" fill="#A8AEFF" fill-opacity="0.7"/>
<g opacity="0.6">
<path d="M326.511 241.834C324.876 242.333 323.018 242.009 321.662 240.836L175.509 113.524C173.496 111.767 173.371 108.776 175.227 106.834C177.093 104.901 180.222 104.759 182.245 106.514L328.398 233.826C330.41 235.58 330.539 238.57 328.683 240.511C328.066 241.144 327.316 241.589 326.511 241.834Z" fill="#E9DFFB"/>
<path d="M265.037 260.587L7.94357 339.013C6.23835 339.533 4.38203 339.161 3.07593 338.026C1.76172 336.9 1.19876 335.189 1.58872 333.539L75.243 24.3768C75.6408 22.7286 76.9341 21.3891 78.6394 20.8689L144.091 0.902911C146.729 0.0982463 149.524 1.45646 150.341 3.93993C151.157 6.4202 149.684 9.0804 147.046 9.88506L84.3548 29.009L13.2413 327.51L262.081 251.601C264.716 250.798 267.511 252.156 268.327 254.636C269.145 257.123 267.672 259.783 265.037 260.587Z" fill="#E9DFFB"/>
<path d="M265.033 260.588L7.94225 339.013C5.30447 339.818 2.50761 338.454 1.68835 335.964C0.870148 333.477 2.3414 330.811 4.97918 330.007L253.813 254.101L160.887 173.663C158.865 171.911 158.742 168.918 160.615 166.972C162.491 165.035 165.651 164.884 167.684 166.636L266.95 252.572C268.257 253.711 268.821 255.427 268.42 257.076C268.026 258.724 266.738 260.068 265.033 260.588Z" fill="#E9DFFB"/>
<path d="M117.125 361.387L56.3836 379.916C53.7606 380.716 50.9545 379.284 50.1102 376.718C49.2648 374.148 50.7029 371.422 53.3259 370.622L114.064 352.094C116.684 351.295 119.49 352.726 120.335 355.296C121.183 357.861 119.745 360.588 117.125 361.387Z" fill="#E9DFFB"/>
<path d="M265.037 260.587L7.9436 339.013C6.23838 339.533 4.37813 339.149 3.07396 338.02C1.75851 336.89 1.19401 335.174 1.58274 333.521L31.3482 208.225C31.9629 205.665 34.6163 204.043 37.3286 204.58C40.0236 205.133 41.7124 207.648 41.1069 210.202L13.2333 327.485L262.073 251.577C264.708 250.773 267.505 252.137 268.323 254.624C269.143 257.118 267.672 259.783 265.037 260.587Z" fill="#E9DFFB"/>
<path d="M374.948 282.738L117.858 361.163C115.22 361.968 112.429 360.622 111.618 358.157C110.806 355.689 112.283 353.041 114.921 352.237L363.756 276.33L271.127 196.784C269.11 195.048 268.995 192.08 270.872 190.145C272.754 188.228 275.904 188.056 277.933 189.795L376.884 274.782C378.189 275.912 378.747 277.609 378.342 279.246C377.947 280.881 376.653 282.218 374.948 282.738Z" fill="#E9DFFB"/>
<path d="M265.047 260.584L73.7692 318.933C71.1364 319.736 68.3224 318.307 67.477 315.737C66.6327 313.171 68.0787 310.442 70.7116 309.639L261.989 251.29C264.618 250.488 267.432 251.917 268.277 254.483C269.122 257.053 267.676 259.782 265.047 260.584Z" fill="#E9DFFB"/>
<path d="M215.867 217.634L88.2916 256.551C86.5799 257.073 84.7174 256.703 83.4079 255.568C82.0902 254.442 81.527 252.73 81.92 251.079L141.107 4.29063C141.718 1.73712 144.393 0.109692 147.113 0.641615C149.809 1.18083 151.499 3.68864 150.895 6.25072L93.6193 245.034L212.909 208.645C215.554 207.838 218.357 209.195 219.173 211.676C219.992 214.164 218.514 216.827 215.867 217.634Z" fill="#E9DFFB"/>
<path d="M215.839 217.643L150.868 237.462C149.145 237.988 147.271 237.617 145.953 236.478C144.628 235.348 144.062 233.628 144.459 231.97L174.099 109.005C174.726 106.436 177.41 104.803 180.144 105.336C182.861 105.875 184.557 108.394 183.946 110.968L156.243 225.888L212.869 208.614C215.531 207.802 218.352 209.163 219.172 211.655C219.994 214.154 218.505 216.829 215.839 217.643Z" fill="#E9DFFB"/>
<path d="M56.7043 379.818C55.0622 380.319 53.1983 380.019 51.8352 378.869L3.01044 337.747C0.955078 336.017 0.813118 333.041 2.68642 331.075C4.55259 329.123 7.73181 328.926 9.78718 330.656L58.6164 371.779C60.6718 373.509 60.8169 376.496 58.9405 378.451C58.3107 379.106 57.5407 379.563 56.7043 379.818Z" fill="#E9DFFB"/>
<path d="M374.574 282.852C373.689 283.122 372.726 283.166 371.78 282.933C369.125 282.276 367.55 279.708 368.276 277.177L385.134 218.601L148.429 14.2286L91.5647 252.703C90.9374 255.26 88.2775 256.864 85.5815 256.344C82.8905 255.804 81.2043 253.297 81.8091 250.741L140.59 4.25797C141.394 0.963625 146.242 -0.515141 148.869 1.73243L394.153 213.509C395.517 214.683 396.062 216.497 395.575 218.197L377.914 279.546C377.443 281.166 376.15 282.371 374.574 282.852Z" fill="#E9DFFB"/>
</g>
</svg>
