<svg width="533" height="509" viewBox="0 0 533 509" fill="none" xmlns="http://www.w3.org/2000/svg">
<path d="M356 59.3768C405 61.8768 516.46 78.6804 540.5 142.5V518H92C65.5 498.5 37 395.5 74.5 326.877C112 258.254 96.9709 223.961 74.5 190.877C52.0291 157.793 29.0036 147.396 29 123.877C28.9964 100.358 74.5 81.3767 147.5 74.3768C220.5 67.3769 307 56.8768 356 59.3768Z" fill="#82DDFF" fill-opacity="0.8" stroke="#82DDFF"/>
<path d="M352.5 107.5C401.5 87.5 510.697 167.526 540.5 197.5V519C540.5 519 251.5 519 222.5 519C193.5 519 153 466.5 154 425.5C155 384.5 213.391 317.618 213.92 287.058C214.448 256.499 161.42 221.558 149.42 202.558C137.42 183.559 156.553 146.637 213.92 128.058C261.422 125.845 303.5 127.5 352.5 107.5Z" fill="#6A9DFF" stroke="#6A9DFF"/>
<g opacity="0.6">
<path d="M458.961 350.119C457.191 350.688 455.171 350.288 453.686 348.898L293.738 198.025C291.534 195.942 291.368 192.432 293.363 190.173C295.369 187.924 298.764 187.79 300.978 189.869L460.927 340.742C463.129 342.821 463.299 346.33 461.304 348.589C460.641 349.326 459.831 349.839 458.961 350.119Z" fill="#E9DFFB"/>
<path d="M392.424 371.492L114.159 460.878C112.313 461.471 110.294 461.016 108.865 459.67C107.427 458.336 106.798 456.322 107.204 454.391L183.989 92.4007C184.404 90.471 185.794 88.9126 187.64 88.3197L258.482 65.5635C261.337 64.6464 264.385 66.2686 265.297 69.1909C266.208 72.1093 264.636 75.2155 261.781 76.1326L193.927 97.9291L119.791 447.435L389.124 360.919C391.975 360.003 395.023 361.625 395.934 364.544C396.848 367.47 395.276 370.576 392.424 371.492Z" fill="#E9DFFB"/>
<path d="M392.419 371.494L114.157 460.878C111.302 461.796 108.252 460.167 107.337 457.237C106.424 454.31 107.993 451.198 110.848 450.281L380.174 363.767L278.482 268.437C276.269 266.36 276.105 262.848 278.118 260.583C280.134 258.33 283.563 258.185 285.788 260.262L394.418 362.107C395.849 363.457 396.479 365.476 396.061 367.408C395.65 369.337 394.265 370.901 392.419 371.494Z" fill="#E9DFFB"/>
<path d="M232.901 488.247L167.158 509.366C164.319 510.278 161.258 508.569 160.315 505.55C159.371 502.526 160.904 499.342 163.743 498.43L229.484 477.312C232.319 476.402 235.379 478.11 236.323 481.134C237.27 484.153 235.737 487.337 232.901 488.247Z" fill="#E9DFFB"/>
<path d="M392.424 371.492L114.159 460.878C112.313 461.471 110.29 461.002 108.862 459.663C107.423 458.324 106.793 456.305 107.198 454.37L138.224 307.663C138.866 304.665 141.729 302.789 144.679 303.447C147.61 304.124 149.469 307.092 148.837 310.082L119.782 447.407L389.115 360.891C391.966 359.975 395.016 361.603 395.93 364.53C396.846 367.464 395.276 370.576 392.424 371.492Z" fill="#E9DFFB"/>
<path d="M511.956 398.608L233.694 487.993C230.839 488.91 227.795 487.302 226.89 484.402C225.983 481.498 227.56 478.406 230.415 477.489L499.743 390.975L398.381 296.694C396.174 294.637 396.019 291.153 398.036 288.901C400.06 286.672 403.477 286.502 405.697 288.564L513.977 389.292C515.404 390.632 516.028 392.629 515.605 394.546C515.193 396.459 513.802 398.015 511.956 398.608Z" fill="#E9DFFB"/>
<path d="M392.434 371.489L185.405 437.992C182.555 438.907 179.486 437.202 178.542 434.178C177.599 431.158 179.141 427.971 181.991 427.056L389.02 360.553C391.866 359.639 394.935 361.344 395.878 364.364C396.822 367.388 395.28 370.575 392.434 371.489Z" fill="#E9DFFB"/>
<path d="M338.611 320.592L200.53 364.947C198.677 365.542 196.652 365.089 195.219 363.743C193.777 362.409 193.148 360.395 193.558 358.462L255.276 69.5077C255.914 66.5179 258.801 64.6359 261.759 65.2878C264.691 65.9481 266.551 68.9078 265.921 71.9078L206.195 351.489L335.309 310.014C338.171 309.095 341.228 310.715 342.139 313.635C343.053 316.562 341.477 319.671 338.611 320.592Z" fill="#E9DFFB"/>
<path d="M338.581 320.601L268.26 343.19C266.395 343.79 264.356 343.336 262.915 341.985C261.464 340.646 260.833 338.623 261.246 336.681L292.161 192.708C292.816 189.701 295.712 187.812 298.685 188.465C301.64 189.125 303.506 192.098 302.87 195.112L273.975 329.666L335.265 309.978C338.146 309.052 341.222 310.678 342.138 313.61C343.056 316.55 341.467 319.675 338.581 320.601Z" fill="#E9DFFB"/>
<path d="M167.505 509.254C165.728 509.825 163.701 509.455 162.21 508.091L108.791 459.343C106.542 457.292 106.357 453.798 108.371 451.511C110.376 449.24 113.825 449.041 116.074 451.092L169.498 499.842C171.747 501.893 171.935 505.399 169.918 507.674C169.241 508.435 168.41 508.964 167.505 509.254Z" fill="#E9DFFB"/>
<path d="M511.552 398.738C510.594 399.046 509.549 399.087 508.52 398.804C505.631 398.006 503.895 394.977 504.657 392.015L522.356 323.459L263.326 81.243L204.043 360.466C203.389 363.459 200.518 365.315 197.586 364.676C194.659 364.015 192.803 361.057 193.434 358.063L254.715 69.4641C255.554 65.6071 260.801 63.9217 263.676 66.5857L532.094 317.577C533.587 318.968 534.196 321.103 533.686 323.092L515.143 394.893C514.649 396.789 513.258 398.19 511.552 398.738Z" fill="#E9DFFB"/>
</g>
</svg>
