<svg width="20" height="20" viewBox="0 0 20 20" fill="none" xmlns="http://www.w3.org/2000/svg">
<path fill-rule="evenodd" clip-rule="evenodd" d="M13.765 3.76012C12.6029 3.29077 11.3318 3 10 3C4.47715 3 0 8 0 10C0 11.0347 1.19833 12.8724 3.11984 14.4052L4.18804 13.337C4.08547 13.2576 3.98483 13.1769 3.88618 13.0951C3.07902 12.4261 2.44698 11.7176 2.02929 11.0985C1.82059 10.7892 1.67872 10.5219 1.593 10.3108C1.5129 10.1135 1.50175 10.0143 1.50023 10.0009L1.50013 10L1.50023 9.99914C1.50175 9.98568 1.5129 9.88654 1.593 9.68923C1.67872 9.47807 1.82059 9.21078 2.02929 8.90146C2.44698 8.28238 3.07902 7.5739 3.88618 6.90485C5.51383 5.55571 7.68666 4.5 10 4.5C10.8941 4.5 11.7672 4.6577 12.596 4.9291L13.765 3.76012ZM14.7349 4.20439L13.6125 5.32681C14.0912 5.54502 14.55 5.79843 14.9835 6.07716L16.0658 4.99484C15.6469 4.71053 15.2021 4.44415 14.7349 4.20439ZM13.3089 7.75176C13.0252 7.33508 12.6649 6.97477 12.2482 6.69111L11.1564 7.78293C11.6091 8.01957 11.9804 8.39083 12.217 8.84358L13.3089 7.75176ZM12.4999 9.97496L13.7817 8.69318C13.9232 9.1027 14 9.54238 14 10C14 12.2091 12.2091 14 10 14C9.54238 14 9.1027 13.9232 8.69318 13.7817L9.97496 12.4999C9.98329 12.5 9.99164 12.5 10 12.5C11.3807 12.5 12.5 11.3807 12.5 10C12.5 9.99164 12.5 9.98329 12.4999 9.97496ZM8.84358 12.217C8.39083 11.9804 8.01957 11.6091 7.78293 11.1564L6.69111 12.2482C6.97477 12.6649 7.33508 13.0252 7.75176 13.3089L8.84358 12.217ZM6.38746 14.6732C5.90871 14.455 5.44997 14.2015 5.01649 13.9228L3.93417 15.0051C4.353 15.2894 4.79787 15.5558 5.26503 15.7956L6.38746 14.6732ZM6.23497 16.2399C7.39709 16.7092 8.66814 17 10 17C15.5228 17 20 12 20 10C20 8.96528 18.8016 7.12759 16.8801 5.59472L15.8119 6.66292C15.9145 6.74237 16.0152 6.82307 16.1138 6.90485C16.921 7.5739 17.553 8.28238 17.9707 8.90146C18.1794 9.21078 18.3213 9.47807 18.407 9.68923C18.4871 9.88654 18.4983 9.98568 18.4998 9.99914L18.4999 10L18.4998 10.0009C18.4983 10.0143 18.4871 10.1135 18.407 10.3108C18.3213 10.5219 18.1794 10.7892 17.9707 11.0985C17.553 11.7176 16.921 12.4261 16.1138 13.0951C14.4862 14.4443 12.3133 15.5 10 15.5C9.10587 15.5 8.23274 15.3423 7.40395 15.0709L6.23497 16.2399ZM6.21832 11.3068L7.50012 10.025C7.50004 10.0167 7.5 10.0083 7.5 10C7.5 8.61929 8.61929 7.5 10 7.5C10.0083 7.5 10.0167 7.50004 10.025 7.50012L11.3068 6.21832C10.8973 6.07684 10.4576 6 10 6C7.79086 6 6 7.79086 6 10C6 10.4576 6.07684 10.8973 6.21832 11.3068Z" fill="#0C031B"/>
<rect x="16.5408" y="2.39844" width="1.5" height="20" rx="0.75" transform="rotate(45 16.5408 2.39844)" fill="#0C031B"/>
</svg>
