<svg width="20" height="20" viewBox="0 0 20 20" fill="none" xmlns="http://www.w3.org/2000/svg">
<path fill-rule="evenodd" clip-rule="evenodd" d="M18.4999 10C18.4998 9.99977 18.4998 9.99948 18.4998 9.99914C18.4983 9.98568 18.4871 9.88654 18.407 9.68923C18.3213 9.47807 18.1794 9.21078 17.9707 8.90146C17.553 8.28238 16.921 7.5739 16.1138 6.90485C14.4862 5.55571 12.3133 4.5 10 4.5C7.68666 4.5 5.51383 5.55571 3.88618 6.90485C3.07902 7.5739 2.44698 8.28238 2.02929 8.90146C1.82059 9.21078 1.67872 9.47807 1.593 9.68923C1.5129 9.88654 1.50175 9.98568 1.50023 9.99914C1.50019 9.99948 1.50016 9.99977 1.50013 10C1.50016 10.0002 1.50019 10.0005 1.50023 10.0009C1.50175 10.0143 1.5129 10.1135 1.593 10.3108C1.67872 10.5219 1.82059 10.7892 2.02929 11.0985C2.44698 11.7176 3.07902 12.4261 3.88618 13.0951C5.51383 14.4443 7.68666 15.5 10 15.5C12.3133 15.5 14.4862 14.4443 16.1138 13.0951C16.921 12.4261 17.553 11.7176 17.9707 11.0985C18.1794 10.7892 18.3213 10.5219 18.407 10.3108C18.4871 10.1135 18.4983 10.0143 18.4998 10.0009C18.4998 10.0005 18.4998 10.0002 18.4999 10ZM10 17C15.5228 17 20 12 20 10C20 8 15.5228 3 10 3C4.47715 3 0 8 0 10C0 12 4.47715 17 10 17Z" fill="#0C031B"/>
<path fill-rule="evenodd" clip-rule="evenodd" d="M10 12.5C11.3807 12.5 12.5 11.3807 12.5 10C12.5 8.61929 11.3807 7.5 10 7.5C8.61929 7.5 7.5 8.61929 7.5 10C7.5 11.3807 8.61929 12.5 10 12.5ZM10 14C12.2091 14 14 12.2091 14 10C14 7.79086 12.2091 6 10 6C7.79086 6 6 7.79086 6 10C6 12.2091 7.79086 14 10 14Z" fill="#0C031B"/>
</svg>
