<svg width="20" height="20" viewBox="0 0 20 20" fill="none" xmlns="http://www.w3.org/2000/svg">
<path d="M18.3203 8.33317C18.2894 7.24061 18.1855 6.54405 17.8355 5.94962C17.3376 5.1042 16.4411 4.63372 14.648 3.69277L12.9814 2.81815C11.5184 2.05039 10.7869 1.6665 9.99996 1.6665C9.21304 1.6665 8.48154 2.05039 7.01853 2.81815L5.35187 3.69277C3.55882 4.63372 2.66228 5.1042 2.16446 5.94962C1.66663 6.79505 1.66663 7.84706 1.66663 9.95109V10.0486C1.66663 12.1526 1.66663 13.2047 2.16446 14.0501C2.66228 14.8955 3.55882 15.3659 5.35187 16.3069L7.01853 17.1815C8.48154 17.9493 9.21304 18.3332 9.99996 18.3332C10.7869 18.3332 11.5184 17.9493 12.9814 17.1815L14.648 16.3069C16.4411 15.3659 17.3376 14.8955 17.8355 14.0501C18.1855 13.4556 18.2894 12.7591 18.3203 11.6665" stroke="#0C031B" stroke-width="1.2" stroke-linecap="round"/>
<path d="M17.5 6.25L14.1667 7.91667M14.1667 7.91667C14.1667 7.91667 13.9127 8.04364 13.75 8.125C12.2855 8.85725 10 10 10 10M14.1667 7.91667V10.8333M14.1667 7.91667L6.25 3.75M10 10L2.5 6.25M10 10V17.9167" stroke="#0C031B" stroke-width="1.2" stroke-linecap="round"/>
</svg>
