<svg width="10" height="10" viewBox="0 0 10 10" fill="none" xmlns="http://www.w3.org/2000/svg">
<path fill-rule="evenodd" clip-rule="evenodd" d="M8.46935 5.50508L5.54071 8.42991C5.34328 8.62708 5.34328 8.94677 5.54071 9.14395C5.73814 9.34112 6.05825 9.34112 6.25568 9.14395L9.71372 5.6904C10.0954 5.30919 10.0954 4.69113 9.71372 4.30992L6.25568 0.856378C6.05825 0.659202 5.73814 0.659202 5.54071 0.856378C5.34328 1.05355 5.34328 1.37324 5.54071 1.57042L8.46937 4.49527L0.505559 4.49527C0.226346 4.49527 -1.12908e-06 4.72132 -1.14127e-06 5.00017C-1.15346e-06 5.27902 0.226347 5.50508 0.505559 5.50508L8.46935 5.50508Z" fill="white"/>
</svg>
