<svg width="20" height="20" viewBox="0 0 20 20" fill="none" xmlns="http://www.w3.org/2000/svg">
<g clip-path="url(#clip0_1321_11839)">
<path d="M9.94318 13.7122C8.37419 13.7122 7.10227 12.4404 7.10227 10.8713V8.97738M9.94318 13.7122C11.5122 13.7122 12.7841 12.4404 12.7841 10.8713V8.97738M9.94318 13.7122V8.97738M7.10227 8.97738C7.10227 7.4084 8.37419 6.13647 9.94318 6.13647C11.5122 6.13647 12.7841 7.4084 12.7841 8.97738M7.10227 8.97738H12.7841M12.8518 9.92435H14.2045M5.68182 9.92435H7.10227M12.7841 12.2918L13.7311 12.7653M7.10227 12.2918L6.1553 12.7653M12.7841 7.55693L13.7311 7.08344M7.10227 7.55693L6.1553 7.08344" stroke="#ED2424" stroke-width="0.8" stroke-linecap="round"/>
<path d="M5.48295 2.1884C6.80617 1.42295 8.34245 0.984863 9.98105 0.984863C14.9495 0.984863 18.9773 5.0126 18.9773 9.98108C18.9773 14.9495 14.9495 18.9773 9.98105 18.9773C5.01258 18.9773 0.98484 14.9495 0.98484 9.98108C0.98484 8.34248 1.42293 6.80619 2.18837 5.48297" stroke="#ED2424" stroke-width="1.5" stroke-linecap="round"/>
</g>
<defs>
<clipPath id="clip0_1321_11839">
<rect width="20" height="20" fill="white"/>
</clipPath>
</defs>
</svg>
