<svg width="20" height="20" viewBox="0 0 20 20" fill="none" xmlns="http://www.w3.org/2000/svg">
<path d="M18.3332 11.6667C18.3332 8.524 18.3332 6.95262 17.3568 5.97631C16.7316 5.35102 15.8622 5.1262 14.4923 5.04538C13.7232 5 12.7964 5 11.6665 5H8.33317C7.20328 5 6.2765 5 5.50746 5.04538C4.1375 5.1262 3.26811 5.35102 2.64281 5.97631C1.6665 6.95262 1.6665 8.524 1.6665 11.6667C1.6665 14.8093 1.6665 16.3807 2.64281 17.357C3.61913 18.3333 5.19047 18.3333 8.33317 18.3333H11.6665C14.8092 18.3333 16.3806 18.3333 17.3568 17.357C17.9012 16.8127 18.142 16.0834 18.2486 15" stroke="#0C031B" stroke-width="1.2" stroke-linecap="round"/>
<path d="M5.50781 5.04537C6.19401 5.02798 6.79937 4.54576 7.03286 3.90027C7.04005 3.88041 7.04741 3.85832 7.06214 3.81414L7.08352 3.75C7.11867 3.64453 7.13625 3.59178 7.15506 3.545C7.39522 2.9476 7.958 2.54197 8.60066 2.50305C8.651 2.5 8.70658 2.5 8.81783 2.5H11.1826C11.2937 2.5 11.3493 2.5 11.3997 2.50305C12.0423 2.54197 12.6052 2.9476 12.8453 3.545C12.8641 3.59178 12.8817 3.64452 12.9168 3.75L12.9382 3.81414C12.9529 3.85827 12.9603 3.88042 12.9675 3.90027C13.201 4.54576 13.8063 5.02798 14.4926 5.04537" stroke="#0C031B" stroke-width="1.2"/>
<path d="M18.0516 7.2666C15.5433 8.89691 14.2892 9.71208 12.9672 10.1228C11.0347 10.7232 8.96558 10.7232 7.0331 10.1228C5.71102 9.71208 4.45693 8.89691 1.94873 7.2666" stroke="#0C031B" stroke-width="1.2" stroke-linecap="round"/>
<path d="M6.6665 9.16699V10.8337" stroke="#0C031B" stroke-width="1.5" stroke-linecap="round"/>
<path d="M13.3335 9.16699V10.8337" stroke="#0C031B" stroke-width="1.5" stroke-linecap="round"/>
</svg>
