<svg width="20" height="20" viewBox="0 0 20 20" fill="none" xmlns="http://www.w3.org/2000/svg">
<path d="M18.3332 18.333H1.6665" stroke="#0C031B" stroke-width="1.2" stroke-linecap="round"/>
<path d="M14.1668 18.3337V5.00033C14.1668 3.42898 14.1668 2.6433 13.6787 2.15515C13.1905 1.66699 12.4048 1.66699 10.8335 1.66699H9.16683C7.59548 1.66699 6.8098 1.66699 6.32165 2.15515C5.8335 2.6433 5.8335 3.42898 5.8335 5.00033V18.3337" stroke="#0C031B" stroke-width="1.2"/>
<path d="M16.1661 6.75588L16.1965 6.71046C16.1211 6.69684 16.041 6.68595 15.9553 6.67723L16.1661 6.75588ZM16.1661 6.75588C16.0986 6.74428 16.0268 6.73476 15.9502 6.72697L15.9502 6.72697C15.7357 6.70515 15.4844 6.69694 15.1835 6.69385M16.1661 6.75588L15.1835 6.69385M15.1835 6.69385V6.64385C15.4854 6.64694 15.7386 6.6552 15.9553 6.67723L15.1835 6.69385ZM17.4733 8.98366C17.4702 8.68276 17.462 8.43152 17.4402 8.21696L17.4402 8.21692C17.4324 8.14037 17.4229 8.06861 17.4113 8.00103L17.4567 7.97066C17.4703 8.04601 17.4812 8.12614 17.4899 8.21182L17.4899 8.21191C17.5119 8.42851 17.5202 8.68172 17.5233 8.98366H17.4733ZM17.5252 13.517V17.7337H17.4752V13.517H17.5252Z" stroke="#0C031B" stroke-width="1.2"/>
<path d="M3.125 16.667C3.125 16.3218 2.84518 16.042 2.5 16.042C2.15483 16.042 1.875 16.3218 1.875 16.667H3.125ZM1.875 13.3337C1.875 13.6788 2.15483 13.9587 2.5 13.9587C2.84518 13.9587 3.125 13.6788 3.125 13.3337H1.875ZM5.41667 6.04199C4.84448 6.04199 4.3683 6.04123 3.98418 6.08031C3.58963 6.12045 3.22348 6.20771 2.89348 6.42821L3.58795 7.46754C3.67833 7.40716 3.81497 7.35398 4.11069 7.32389C4.41686 7.29275 4.81847 7.29199 5.41667 7.29199V6.04199ZM3.125 9.58366C3.125 8.98549 3.12576 8.58383 3.1569 8.27768C3.18698 7.98196 3.24017 7.84532 3.30055 7.75494L2.26122 7.06048C2.04072 7.39048 1.95346 7.75662 1.91332 8.15118C1.87424 8.53533 1.875 9.01149 1.875 9.58366H3.125ZM2.89348 6.42821C2.64326 6.5954 2.42841 6.81025 2.26122 7.06048L3.30055 7.75494C3.37655 7.6412 3.47421 7.54354 3.58795 7.46754L2.89348 6.42821ZM1.875 16.667V18.3337H3.125V16.667H1.875ZM1.875 9.58366V13.3337H3.125V9.58366H1.875Z" fill="#0C031B"/>
<path d="M10 18.333V15.833" stroke="#0C031B" stroke-width="1.5" stroke-linecap="round"/>
<path d="M8.3335 4.16699H11.6668" stroke="#0C031B" stroke-width="1.5" stroke-linecap="round"/>
<path d="M8.3335 11.667H8.75016M11.6668 11.667H10.4168" stroke="#0C031B" stroke-width="1.5" stroke-linecap="round"/>
<path d="M11.6668 6.66699H11.2502M8.3335 6.66699H9.5835" stroke="#0C031B" stroke-width="1.5" stroke-linecap="round"/>
<path d="M8.3335 9.16699H11.6668" stroke="#0C031B" stroke-width="1.5" stroke-linecap="round"/>
</svg>
