<svg width="20" height="20" viewBox="0 0 20 20" fill="none" xmlns="http://www.w3.org/2000/svg">
<path d="M10.8533 12.1339C8.9285 12.9038 7.96608 13.2888 7.41637 12.9152C7.28603 12.8267 7.17362 12.7142 7.08505 12.5839C6.7115 12.0342 7.09646 11.0718 7.86639 9.14699C8.03061 8.7364 8.11272 8.53115 8.25395 8.37007C8.28993 8.32906 8.32857 8.29042 8.36958 8.25444C8.53067 8.11321 8.73591 8.0311 9.1465 7.86687C11.0713 7.09695 12.0337 6.71199 12.5834 7.08554C12.7137 7.1741 12.8262 7.28652 12.9147 7.41685C13.2883 7.96657 12.9033 8.92899 12.1334 10.8538C11.9692 11.2643 11.8871 11.4697 11.7458 11.6307C11.7098 11.6717 11.6712 11.7103 11.6302 11.7463C11.4692 11.8876 11.2638 11.9697 10.8533 12.1339Z" stroke="#0C031B" stroke-width="1.2"/>
<path d="M5.83317 2.78184C7.0589 2.0728 8.482 1.66699 9.99984 1.66699C14.6022 1.66699 18.3332 5.39795 18.3332 10.0003C18.3332 14.6027 14.6022 18.3337 9.99984 18.3337C5.39746 18.3337 1.6665 14.6027 1.6665 10.0003C1.6665 8.48249 2.07231 7.05938 2.78135 5.83366" stroke="#0C031B" stroke-width="1.2" stroke-linecap="round"/>
</svg>
