<svg width="21" height="20" viewBox="0 0 21 20" fill="none" xmlns="http://www.w3.org/2000/svg">
<mask id="path-1-inside-1_1934_14640" fill="white">
<path d="M9.875 15.0003C9.875 15.3455 10.1548 15.6253 10.5 15.6253C10.8452 15.6253 11.125 15.3455 11.125 15.0003H9.875ZM15.5 6.66699L15.9419 7.10893C16.186 6.86486 16.186 6.46912 15.9419 6.22505L15.5 6.66699ZM14.6919 4.97505C14.4478 4.73097 14.0522 4.73097 13.8081 4.97505C13.564 5.21912 13.564 5.61486 13.8081 5.85893L14.6919 4.97505ZM13.8081 7.47505C13.564 7.71912 13.564 8.11486 13.8081 8.35891C14.0522 8.60299 14.4478 8.60299 14.6919 8.35891L13.8081 7.47505ZM11.125 15.0003V10.0003H9.875V15.0003H11.125ZM13.8333 7.29199H15.5V6.04199H13.8333V7.29199ZM15.9419 6.22505L14.6919 4.97505L13.8081 5.85893L15.0581 7.10893L15.9419 6.22505ZM15.0581 6.22505L13.8081 7.47505L14.6919 8.35891L15.9419 7.10893L15.0581 6.22505ZM11.125 10.0003C11.125 8.50457 12.3376 7.29199 13.8333 7.29199V6.04199C11.6472 6.04199 9.875 7.8142 9.875 10.0003H11.125Z"/>
</mask>
<path d="M11.125 14.2503H9.875V15.7503H11.125V14.2503ZM14.3384 6.38925L15.2223 5.50536L14.1616 4.44473L13.2777 5.32862L14.3384 6.38925ZM15.2223 7.82858L14.3384 6.94473L13.2777 8.00537L14.1616 8.88923L15.2223 7.82858ZM11.125 9.25032H9.875V10.7503H11.125V9.25032ZM13.0833 6.04199V7.29199H14.5833V6.04199H13.0833ZM15.5 6.66699L14.4393 5.60636L13.3787 6.66699L14.4393 7.72762L15.5 6.66699ZM14.6919 4.97505L15.7526 3.91439L15.7526 3.91437L14.6919 4.97505ZM13.8081 5.85893L14.8687 4.79827L14.8687 4.79825L13.8081 5.85893ZM13.8081 7.47505L14.8687 8.53573L14.8687 8.53571L13.8081 7.47505ZM13.8081 8.35891L14.8687 7.29825L14.8687 7.29817L13.8081 8.35891ZM14.6919 8.35891L13.6313 7.29824L13.6313 7.29825L14.6919 8.35891ZM15.5 7.29199V8.79199H17V7.29199H15.5ZM15.5 6.04199H17V4.54199H15.5V6.04199ZM15.0581 7.10893L13.9974 8.16959L15.0581 9.23028L16.1188 8.16956L15.0581 7.10893ZM15.0581 6.22505L16.1188 5.16442L15.0581 4.1037L13.9974 5.16439L15.0581 6.22505ZM8.375 15.0003C8.375 16.1739 9.32641 17.1253 10.5 17.1253V14.1253C10.9833 14.1253 11.375 14.5171 11.375 15.0003H8.375ZM10.5 17.1253C11.6736 17.1253 12.625 16.1739 12.625 15.0003H9.625C9.625 14.5171 10.0167 14.1253 10.5 14.1253V17.1253ZM14.4393 7.72762L14.8812 8.16956L17.0026 6.0483L16.5607 5.60636L14.4393 7.72762ZM17.0026 8.16961C17.8325 7.33974 17.8325 5.99424 17.0026 5.16437L14.8813 7.28573C14.5395 6.94401 14.5395 6.38997 14.8813 6.04825L17.0026 8.16961ZM14.8812 5.16442L14.4393 5.60636L16.5607 7.72762L17.0026 7.28568L14.8812 5.16442ZM15.7526 3.91437C14.9227 3.08453 13.5773 3.08453 12.7474 3.91437L14.8687 6.03573C14.527 6.37741 13.973 6.37741 13.6313 6.03573L15.7526 3.91437ZM12.7474 3.91437C11.9175 4.74424 11.9175 6.08974 12.7474 6.91961L14.8687 4.79825C15.2105 5.13997 15.2105 5.69401 14.8687 6.03573L12.7474 3.91437ZM12.7474 6.41437C11.9176 7.24421 11.9175 8.58976 12.7475 9.41964L14.8687 7.29817C15.2105 7.63996 15.2104 8.19404 14.8687 8.53573L12.7474 6.41437ZM12.7474 9.41957C13.5773 10.2494 14.9227 10.2494 15.7526 9.41957L13.6313 7.29825C13.973 6.95654 14.527 6.95654 14.8687 7.29825L12.7474 9.41957ZM12.625 15.0003V10.0003H9.625V15.0003H12.625ZM8.375 10.0003V15.0003H11.375V10.0003H8.375ZM13.8333 8.79199H15.5V5.79199H13.8333V8.79199ZM17 7.29199V6.04199H14V7.29199H17ZM15.5 4.54199H13.8333V7.54199H15.5V4.54199ZM17.0026 5.16439L15.7526 3.91439L13.6313 6.03571L14.8813 7.28571L17.0026 5.16439ZM12.7474 6.91959L13.9974 8.16959L16.1187 6.04827L14.8687 4.79827L12.7474 6.91959ZM16.1188 8.16956L17.0026 7.28568L14.8812 5.16442L13.9974 6.0483L16.1188 8.16956ZM13.9974 5.16439L12.7474 6.41439L14.8687 8.53571L16.1187 7.28571L13.9974 5.16439ZM15.7526 9.41958L17.0026 8.1696L14.8813 6.04826L13.6313 7.29824L15.7526 9.41958ZM17.0026 6.0483L16.1188 5.16442L13.9974 7.28568L14.8812 8.16956L17.0026 6.0483ZM12.625 10.0003C12.625 9.333 13.166 8.79199 13.8333 8.79199V5.79199C11.5092 5.79199 9.625 7.67615 9.625 10.0003H12.625ZM13.8333 4.54199C10.8187 4.54199 8.375 6.98578 8.375 10.0003H11.375C11.375 8.64262 12.4756 7.54199 13.8333 7.54199V4.54199Z" fill="white" mask="url(#path-1-inside-1_1934_14640)"/>
<path d="M8.22225 7.50541L8.25261 7.47506L7.91666 7.13911V6.88013C9.08621 7.16022 10.0068 8.08079 10.2869 9.25032L8.22225 7.50541Z" fill="#0C031B" stroke="white" stroke-width="1.5"/>
<path d="M18.8333 10.0003C18.8333 13.9287 18.8333 15.8929 17.6129 17.1132C16.3926 18.3337 14.4283 18.3337 10.5 18.3337C6.57161 18.3337 4.60743 18.3337 3.38705 17.1132C2.16666 15.8929 2.16666 13.9287 2.16666 10.0003C2.16666 6.07195 2.16666 4.10777 3.38705 2.88738C4.60743 1.66699 6.57161 1.66699 10.5 1.66699C14.4283 1.66699 16.3926 1.66699 17.6129 2.88738C18.4244 3.69883 18.6963 4.83912 18.7874 6.66699" stroke="white" stroke-width="1.5" stroke-linecap="round"/>
</svg>
