<svg width="20" height="20" viewBox="0 0 20 20" fill="none" xmlns="http://www.w3.org/2000/svg">
<g clip-path="url(#clip0_1092_13471)">
<path d="M9.375 15.0001C9.375 15.3452 9.65483 15.6251 10 15.6251C10.3452 15.6251 10.625 15.3452 10.625 15.0001H9.375ZM15 6.66675L15.4419 7.10869C15.686 6.86461 15.686 6.46888 15.4419 6.2248L15 6.66675ZM14.1919 4.9748C13.9478 4.73073 13.5522 4.73073 13.3081 4.9748C13.064 5.21888 13.064 5.61461 13.3081 5.85869L14.1919 4.9748ZM13.3081 7.4748C13.064 7.71888 13.064 8.11461 13.3081 8.35866C13.5522 8.60275 13.9478 8.60275 14.1919 8.35866L13.3081 7.4748ZM10.625 15.0001V10.0001H9.375V15.0001H10.625ZM13.3333 7.29175H15V6.04175H13.3333V7.29175ZM15.4419 6.2248L14.1919 4.9748L13.3081 5.85869L14.5581 7.10869L15.4419 6.2248ZM14.5581 6.2248L13.3081 7.4748L14.1919 8.35866L15.4419 7.10869L14.5581 6.2248ZM10.625 10.0001C10.625 8.50433 11.8376 7.29175 13.3333 7.29175V6.04175C11.1472 6.04175 9.375 7.81395 9.375 10.0001H10.625Z" fill="#0C031B"/>
<path d="M9.375 15.0001C9.375 15.3452 9.65483 15.6251 10 15.6251C10.3452 15.6251 10.625 15.3452 10.625 15.0001H9.375ZM5 6.66675L4.55806 6.2248C4.31398 6.46888 4.31398 6.86461 4.55806 7.10869L5 6.66675ZM6.69194 5.85869C6.93602 5.61461 6.93602 5.21888 6.69194 4.9748C6.44787 4.73073 6.05213 4.73073 5.80806 4.9748L6.69194 5.85869ZM5.80806 8.35866C6.05213 8.60275 6.44787 8.60275 6.69194 8.35866C6.93602 8.11461 6.93602 7.71888 6.69194 7.4748L5.80806 8.35866ZM10.625 15.0001V10.0001H9.375V15.0001H10.625ZM6.66667 6.04175H5V7.29175H6.66667V6.04175ZM5.44194 7.10869L6.69194 5.85869L5.80806 4.9748L4.55806 6.2248L5.44194 7.10869ZM4.55806 7.10869L5.80806 8.35866L6.69194 7.4748L5.44194 6.2248L4.55806 7.10869ZM10.625 10.0001C10.625 7.81395 8.85283 6.04175 6.66667 6.04175V7.29175C8.16244 7.29175 9.375 8.50433 9.375 10.0001H10.625Z" fill="#0C031B"/>
<path d="M18.3333 10.0001C18.3333 13.9284 18.3333 15.8927 17.1129 17.113C15.8926 18.3334 13.9283 18.3334 10 18.3334C6.07163 18.3334 4.10744 18.3334 2.88706 17.113C1.66667 15.8927 1.66667 13.9284 1.66667 10.0001C1.66667 6.07171 1.66667 4.10752 2.88706 2.88714C4.10744 1.66675 6.07163 1.66675 10 1.66675C13.9283 1.66675 15.8926 1.66675 17.1129 2.88714C17.9244 3.69859 18.1963 4.83887 18.2874 6.66675" stroke="#0C031B" stroke-width="1.5" stroke-linecap="round"/>
</g>
<defs>
<clipPath id="clip0_1092_13471">
<rect width="20" height="20" fill="white"/>
</clipPath>
</defs>
</svg>
