<svg width="20" height="20" viewBox="0 0 20 20" fill="none" xmlns="http://www.w3.org/2000/svg">
<mask id="path-1-inside-1_1973_9716" fill="white">
<path d="M9.375 15.0003C9.375 15.3455 9.65483 15.6253 10 15.6253C10.3452 15.6253 10.625 15.3455 10.625 15.0003H9.375ZM15 6.66699L15.4419 7.10893C15.686 6.86486 15.686 6.46912 15.4419 6.22505L15 6.66699ZM14.1919 4.97505C13.9478 4.73097 13.5522 4.73097 13.3081 4.97505C13.064 5.21912 13.064 5.61486 13.3081 5.85893L14.1919 4.97505ZM13.3081 7.47505C13.064 7.71912 13.064 8.11486 13.3081 8.35891C13.5522 8.60299 13.9478 8.60299 14.1919 8.35891L13.3081 7.47505ZM10.625 15.0003V10.0003H9.375V15.0003H10.625ZM13.3333 7.29199H15V6.04199H13.3333V7.29199ZM15.4419 6.22505L14.1919 4.97505L13.3081 5.85893L14.5581 7.10893L15.4419 6.22505ZM14.5581 6.22505L13.3081 7.47505L14.1919 8.35891L15.4419 7.10893L14.5581 6.22505ZM10.625 10.0003C10.625 8.50457 11.8376 7.29199 13.3333 7.29199V6.04199C11.1472 6.04199 9.375 7.8142 9.375 10.0003H10.625Z"/>
</mask>
<path d="M9.375 15.0003C9.375 15.3455 9.65483 15.6253 10 15.6253C10.3452 15.6253 10.625 15.3455 10.625 15.0003H9.375ZM15 6.66699L15.4419 7.10893C15.686 6.86486 15.686 6.46912 15.4419 6.22505L15 6.66699ZM14.1919 4.97505C13.9478 4.73097 13.5522 4.73097 13.3081 4.97505C13.064 5.21912 13.064 5.61486 13.3081 5.85893L14.1919 4.97505ZM13.3081 7.47505C13.064 7.71912 13.064 8.11486 13.3081 8.35891C13.5522 8.60299 13.9478 8.60299 14.1919 8.35891L13.3081 7.47505ZM10.625 15.0003V10.0003H9.375V15.0003H10.625ZM13.3333 7.29199H15V6.04199H13.3333V7.29199ZM15.4419 6.22505L14.1919 4.97505L13.3081 5.85893L14.5581 7.10893L15.4419 6.22505ZM14.5581 6.22505L13.3081 7.47505L14.1919 8.35891L15.4419 7.10893L14.5581 6.22505ZM10.625 10.0003C10.625 8.50457 11.8376 7.29199 13.3333 7.29199V6.04199C11.1472 6.04199 9.375 7.8142 9.375 10.0003H10.625Z" fill="#0C031B"/>
<path d="M10.625 14.4003H9.375V15.6003H10.625V14.4003ZM13.7324 6.28318L14.6162 5.3993L13.7676 4.5508L12.8838 5.43468L13.7324 6.28318ZM14.6162 7.93465L13.7324 7.05079L12.8838 7.89931L13.7676 8.78316L14.6162 7.93465ZM10.625 9.40032H9.375V10.6003H10.625V9.40032ZM12.7333 6.04199V7.29199H13.9333V6.04199H12.7333ZM15 6.66699L14.1514 5.81849L13.303 6.66699L14.1514 7.51549L15 6.66699ZM14.1919 4.97505L15.0404 4.12652L15.0404 4.12651L14.1919 4.97505ZM13.3081 5.85893L14.1566 5.0104L14.1566 5.01039L13.3081 5.85893ZM13.3081 7.47505L14.1566 8.32359L14.1566 8.32358L13.3081 7.47505ZM13.3081 8.35891L14.1566 7.51038L14.1566 7.51032L13.3081 8.35891ZM14.1919 8.35891L13.3434 7.51037L13.3434 7.51038L14.1919 8.35891ZM15 7.29199V8.49199H16.2V7.29199H15ZM15 6.04199H16.2V4.84199H15V6.04199ZM14.5581 7.10893L13.7096 7.95746L14.5581 8.80601L15.4066 7.95744L14.5581 7.10893ZM14.5581 6.22505L15.4066 5.37654L14.5581 4.52797L13.7096 5.37652L14.5581 6.22505ZM8.175 15.0003C8.175 16.0082 8.99209 16.8253 10 16.8253V14.4253C10.3176 14.4253 10.575 14.6827 10.575 15.0003H8.175ZM10 16.8253C11.0079 16.8253 11.825 16.0082 11.825 15.0003H9.425C9.425 14.6827 9.68242 14.4253 10 14.4253V16.8253ZM14.1514 7.51549L14.5934 7.95744L16.2905 6.26043L15.8486 5.81849L14.1514 7.51549ZM16.2904 7.95747C17.0032 7.24477 17.0032 6.08921 16.2904 5.37651L14.5934 7.07359C14.3688 6.84903 14.3688 6.48495 14.5934 6.26039L16.2904 7.95747ZM14.5934 5.37654L14.1514 5.81849L15.8486 7.51549L16.2905 7.07355L14.5934 5.37654ZM15.0404 4.12651C14.3277 3.41382 13.1723 3.41382 12.4596 4.12651L14.1566 5.82359C13.9321 6.04813 13.5679 6.04813 13.3434 5.82359L15.0404 4.12651ZM12.4596 4.12651C11.7468 4.83921 11.7468 5.99477 12.4596 6.70747L14.1566 5.01039C14.3812 5.23495 14.3812 5.59903 14.1566 5.82359L12.4596 4.12651ZM12.4596 6.62651C11.7469 7.33919 11.7468 8.49478 12.4596 9.20749L14.1566 7.51032C14.3812 7.73494 14.3811 8.09906 14.1566 8.32359L12.4596 6.62651ZM12.4596 9.20744C13.1723 9.92015 14.3277 9.92015 15.0404 9.20744L13.3434 7.51038C13.5679 7.28583 13.9321 7.28583 14.1566 7.51038L12.4596 9.20744ZM11.825 15.0003V10.0003H9.425V15.0003H11.825ZM8.175 10.0003V15.0003H10.575V10.0003H8.175ZM13.3333 8.49199H15V6.09199H13.3333V8.49199ZM16.2 7.29199V6.04199H13.8V7.29199H16.2ZM15 4.84199H13.3333V7.24199H15V4.84199ZM16.2904 5.37652L15.0404 4.12652L13.3434 5.82358L14.5934 7.07358L16.2904 5.37652ZM12.4596 6.70746L13.7096 7.95746L15.4066 6.2604L14.1566 5.0104L12.4596 6.70746ZM15.4066 7.95744L16.2905 7.07355L14.5934 5.37654L13.7095 6.26043L15.4066 7.95744ZM13.7096 5.37652L12.4596 6.62652L14.1566 8.32358L15.4066 7.07358L13.7096 5.37652ZM15.0404 9.20744L16.2904 7.95747L14.5934 6.2604L13.3434 7.51037L15.0404 9.20744ZM16.2905 6.26043L15.4066 5.37654L13.7095 7.07355L14.5934 7.95744L16.2905 6.26043ZM11.825 10.0003C11.825 9.16732 12.5003 8.49199 13.3333 8.49199V6.09199C11.1748 6.09199 9.425 7.84183 9.425 10.0003H11.825ZM13.3333 4.84199C10.4844 4.84199 8.175 7.15146 8.175 10.0003H10.575C10.575 8.47693 11.8099 7.24199 13.3333 7.24199V4.84199Z" fill="#0C031B" mask="url(#path-1-inside-1_1973_9716)"/>
<path d="M7.48242 7.41701L7.26666 7.20125V6.74626M7.26666 6.74626C8.61278 6.99288 9.67411 8.05422 9.92072 9.40032H9.97155C9.72379 8.02653 8.64047 6.9432 7.26666 6.69543V6.74626Z" stroke="#0C031B" stroke-width="1.2"/>
<path d="M18.3332 10.0003C18.3332 13.9287 18.3332 15.8929 17.1128 17.1132C15.8924 18.3337 13.9282 18.3337 9.99984 18.3337C6.07146 18.3337 4.10728 18.3337 2.8869 17.1132C1.6665 15.8929 1.6665 13.9287 1.6665 10.0003C1.6665 6.07195 1.6665 4.10777 2.8869 2.88738C4.10728 1.66699 6.07146 1.66699 9.99984 1.66699C13.9282 1.66699 15.8924 1.66699 17.1128 2.88738C17.9243 3.69883 18.1962 4.83912 18.2873 6.66699" stroke="#0C031B" stroke-width="1.2" stroke-linecap="round"/>
</svg>
