<svg width="20" height="20" viewBox="0 0 20 20" fill="none" xmlns="http://www.w3.org/2000/svg">
<path d="M6.66663 10H7.49996M13.3333 10H9.99996" stroke="#0C031B" stroke-width="1.2" stroke-linecap="round"/>
<path d="M13.3333 6.6665H12.5M9.99996 6.6665H6.66663" stroke="#0C031B" stroke-width="1.2" stroke-linecap="round"/>
<path d="M6.66663 13.3335H10.8333" stroke="#0C031B" stroke-width="1.2" stroke-linecap="round"/>
<path d="M2.5 11.6665V8.33317C2.5 5.19047 2.5 3.61913 3.47631 2.64281C4.45262 1.6665 6.02397 1.6665 9.16667 1.6665H10.8333C13.976 1.6665 15.5474 1.6665 16.5237 2.64281C17.068 3.18714 17.3088 3.91641 17.4154 4.99984M17.5 8.33317V11.6665C17.5 14.8092 17.5 16.3806 16.5237 17.3568C15.5474 18.3332 13.976 18.3332 10.8333 18.3332H9.16667C6.02397 18.3332 4.45262 18.3332 3.47631 17.3568C2.93199 16.8125 2.69114 16.0833 2.58458 14.9998" stroke="#0C031B" stroke-width="1.5" stroke-linecap="round"/>
</svg>
