<svg width="4" height="3" viewBox="0 0 4 3" fill="none" xmlns="http://www.w3.org/2000/svg">
<path d="M2 2.75852C1.80303 2.75852 1.62311 2.71023 1.46023 2.61364C1.29735 2.51515 1.16761 2.38447 1.07102 2.22159C0.974432 2.05871 0.925189 1.87879 0.923295 1.68182C0.923295 1.48295 0.971591 1.30303 1.06818 1.14205C1.16477 0.979167 1.29451 0.849432 1.45739 0.752841C1.62216 0.654356 1.80303 0.605114 2 0.605114C2.19886 0.605114 2.37879 0.654356 2.53977 0.752841C2.70265 0.849432 2.83239 0.979167 2.92898 1.14205C3.02746 1.30303 3.0767 1.48295 3.0767 1.68182C3.0767 1.87879 3.02746 2.05871 2.92898 2.22159C2.83239 2.38447 2.70265 2.51515 2.53977 2.61364C2.37879 2.71023 2.19886 2.75852 2 2.75852Z" fill="#020203"/>
</svg>
