<svg width="20" height="20" viewBox="0 0 20 20" fill="none" xmlns="http://www.w3.org/2000/svg">
<g clip-path="url(#clip0_1702_19483)">
<path d="M11.4632 12.8029C10.5724 14.008 10.1271 14.6106 9.71153 14.4833C9.29605 14.3559 9.29605 13.6169 9.29605 12.1388L9.29609 11.9995C9.29609 11.4663 9.29609 11.1998 9.12572 11.0326L9.11672 11.0239C8.94271 10.8603 8.66528 10.8603 8.11041 10.8603C7.11192 10.8603 6.61268 10.8603 6.44395 10.5574C6.44116 10.5524 6.43844 10.5474 6.4358 10.5422C6.27652 10.2348 6.56559 9.84367 7.14371 9.06146L8.52168 7.1971C9.41237 5.99197 9.85774 5.38941 10.2733 5.51675C10.6888 5.64408 10.6888 6.38312 10.6888 7.8612V8.00057C10.6888 8.53368 10.6888 8.80023 10.8591 8.96743L10.8681 8.97609C11.0421 9.13978 11.3196 9.13978 11.8744 9.13978C12.8729 9.13978 13.3722 9.13978 13.5409 9.44258C13.5437 9.44758 13.5464 9.45266 13.549 9.45775C13.7083 9.76528 13.4193 10.1564 12.8411 10.9386" stroke="#5418C3" stroke-width="0.8" stroke-linecap="round"/>
<path d="M5.47537 2.1884C6.79859 1.42295 8.33488 0.984863 9.97348 0.984863C14.9419 0.984863 18.9697 5.0126 18.9697 9.98108C18.9697 14.9495 14.9419 18.9773 9.97348 18.9773C5.005 18.9773 0.977264 14.9495 0.977264 9.98108C0.977264 8.34248 1.41535 6.80619 2.1808 5.48297" stroke="#5418C3" stroke-width="1.5" stroke-linecap="round"/>
</g>
<defs>
<clipPath id="clip0_1702_19483">
<rect width="20" height="20" fill="white" transform="translate(-0.00756836)"/>
</clipPath>
</defs>
</svg>
