<svg width="41" height="40" viewBox="0 0 41 40" fill="none" xmlns="http://www.w3.org/2000/svg">
<rect x="0.5" width="40" height="40" rx="8" fill="#CAB2F5"/>
<path fill-rule="evenodd" clip-rule="evenodd" d="M12.3526 26.8196C12.1789 26.8196 12.0119 26.7515 11.8897 26.631L11.8895 26.6307C11.7672 26.5102 11.6983 26.3464 11.6983 26.175V13.8255C11.6983 13.654 11.7672 13.4903 11.8895 13.3698L11.8897 13.3695C12.0119 13.249 12.1789 13.1809 12.3526 13.1809H28.6474C28.8211 13.1809 28.9881 13.249 29.1103 13.3695L29.1105 13.3698C29.2328 13.4903 29.3017 13.654 29.3017 13.8255V26.175C29.3017 26.3464 29.2328 26.5102 29.1105 26.6307L29.1103 26.631C28.9881 26.7515 28.8211 26.8196 28.6474 26.8196H12.3526ZM11.0421 27.4655C11.3899 27.8085 11.8621 28.0002 12.3526 28.0002H28.6474C29.1379 28.0002 29.6101 27.8085 29.9579 27.4655C30.3056 27.1229 30.5 26.6587 30.5 26.175V13.8255C30.5 13.3419 30.3056 12.8778 29.9582 12.5353C29.6103 12.1921 29.138 12.0002 28.6474 12.0002H12.3526C11.862 12.0002 11.3897 12.1921 11.0418 12.5353C10.6944 12.8778 10.5 13.3419 10.5 13.8255V26.175C10.5 26.6585 10.6944 27.1227 11.0418 27.4652" fill="white"/>
<path fill-rule="evenodd" clip-rule="evenodd" d="M11.9289 27.8273C12.1629 28.0579 12.5423 28.0579 12.7762 27.8273L18.6198 22.07L20.7031 24.1225C20.8154 24.2332 20.9678 24.2954 21.1267 24.2954C21.2856 24.2954 21.438 24.2332 21.5504 24.1225L26.1405 19.6001L29.4772 22.8876C29.7111 23.1181 30.0905 23.1181 30.3245 22.8876C30.5585 22.657 30.5585 22.2833 30.3245 22.0527L26.5642 18.3479C26.4518 18.2372 26.2994 18.175 26.1405 18.175C25.9816 18.175 25.8292 18.2372 25.7168 18.3479L21.1267 22.8703L19.0435 20.8178C18.8095 20.5873 18.4301 20.5873 18.1961 20.8178L11.9289 26.9925C11.6949 27.223 11.6949 27.5968 11.9289 27.8273Z" fill="white"/>
<path fill-rule="evenodd" clip-rule="evenodd" d="M13.0068 16.9131C13.0068 18.2614 14.1181 19.3558 15.4862 19.3558C16.8542 19.3558 17.9655 18.2614 17.9655 16.9131C17.9655 15.5648 16.8543 14.4704 15.4862 14.4704C14.1181 14.4704 13.0068 15.5648 13.0068 16.9131ZM15.4862 18.1752C14.7797 18.1752 14.2052 17.6093 14.2052 16.9131C14.2052 16.217 14.7798 15.651 15.4862 15.651C16.1926 15.651 16.7672 16.217 16.7672 16.9131C16.7672 17.6093 16.1926 18.1752 15.4862 18.1752Z" fill="white"/>
</svg>
