<svg width="21" height="16" viewBox="0 0 21 16" fill="none" xmlns="http://www.w3.org/2000/svg">
<path fill-rule="evenodd" clip-rule="evenodd" d="M2.35259 14.8196C2.17887 14.8196 2.01194 14.7514 1.88974 14.6309L1.88949 14.6306C1.76717 14.5101 1.69832 14.3464 1.69832 14.1749V1.82543C1.69832 1.65398 1.76717 1.49026 1.88949 1.36972L1.88974 1.36948C2.01194 1.24892 2.17887 1.18081 2.35259 1.18081H18.6474C18.8211 1.18081 18.9881 1.24892 19.1103 1.36948L19.1105 1.36972C19.2328 1.49026 19.3017 1.65398 19.3017 1.82543V14.1749C19.3017 14.3464 19.2328 14.5101 19.1105 14.6306L19.1103 14.6309C18.9881 14.7514 18.8211 14.8196 18.6474 14.8196H2.35259ZM1.04209 15.4654C1.38991 15.8084 1.86213 16.0002 2.35259 16.0002H18.6474C19.1379 16.0002 19.6101 15.8084 19.9579 15.4654C20.3056 15.1228 20.5 14.6586 20.5 14.1749V1.82543C20.5 1.34189 20.3056 0.877741 19.9582 0.535197C19.6103 0.192034 19.138 0.000184059 18.6474 0.000184059H2.35259C1.86201 0.000184059 1.38968 0.192034 1.04184 0.535197C0.694354 0.877741 0.5 1.34189 0.5 1.82543V14.1749C0.5 14.6585 0.694354 15.1226 1.04184 15.4652" fill="white"/>
<path fill-rule="evenodd" clip-rule="evenodd" d="M1.92891 15.8273C2.16289 16.0578 2.54226 16.0578 2.77624 15.8273L8.61982 10.07L10.7031 12.1225C10.8154 12.2332 10.9678 12.2954 11.1267 12.2954C11.2856 12.2954 11.438 12.2332 11.5504 12.1225L16.1405 7.60005L19.4772 10.8875C19.7111 11.118 20.0905 11.118 20.3245 10.8875C20.5585 10.657 20.5585 10.2832 20.3245 10.0527L16.5642 6.3478C16.4518 6.23709 16.2994 6.17489 16.1405 6.17489C15.9816 6.1749 15.8292 6.23709 15.7168 6.3478L11.1267 10.8702L9.04348 8.81774C8.8095 8.58721 8.43014 8.58721 8.19615 8.81774L1.92891 14.9925C1.69492 15.223 1.69492 15.5967 1.92891 15.8273Z" fill="white"/>
<path fill-rule="evenodd" clip-rule="evenodd" d="M3.00684 4.9132C3.00684 6.26151 4.11808 7.3559 5.48616 7.3559C6.85425 7.3559 7.96549 6.26151 7.96549 4.9132C7.96549 3.56491 6.85426 2.47046 5.48616 2.47046C4.11806 2.47046 3.00684 3.56491 3.00684 4.9132ZM5.48616 6.17527C4.77974 6.17527 4.20515 5.60932 4.20515 4.9132C4.20515 4.21706 4.77976 3.65109 5.48616 3.65109C6.19256 3.65109 6.76717 4.21706 6.76717 4.9132C6.76717 5.60932 6.19258 6.17527 5.48616 6.17527Z" fill="white"/>
</svg>
