<svg width="32" height="32" viewBox="0 0 32 32" fill="none" xmlns="http://www.w3.org/2000/svg">
<rect width="32" height="32" rx="16" fill="#BA9BF3"/>
<path d="M21.7827 15.0679C21.4758 15.5265 20.7767 16.3348 19.9206 16.7396C19.9263 16.9815 19.9471 17.2231 19.9831 17.4635C19.9831 17.4635 19.9379 18.9464 17.5567 18.9464C15.1755 18.9464 15.1227 17.4542 15.1227 17.4542C15.1572 17.2084 15.1785 16.9337 15.1851 16.7172C14.7694 16.5125 14.3998 16.2535 14.0916 15.9511C13.6642 15.5327 13.3524 15.047 13.1766 14.5257L12.9962 14.5036C12.7933 14.4766 12.6027 14.408 12.443 14.3046C12.2463 14.1712 12.088 14.0054 11.979 13.8186C11.7477 13.4491 11.6481 13.036 11.6912 12.6243C11.6971 12.5191 11.7306 12.4161 11.7896 12.3219C11.8406 12.2535 11.9102 12.1952 11.9933 12.1511C12.0763 12.1071 12.1707 12.0785 12.2694 12.0674C12.3699 12.0557 12.4723 12.0614 12.5697 12.0842C12.6672 12.1069 12.7573 12.1462 12.834 12.1992C12.834 12.1992 12.1629 8.94043 17.5084 8.94043C22.5867 8.94043 22.3044 12.1992 22.3044 12.1992C22.3811 12.1461 22.4712 12.1069 22.5686 12.0841C22.6661 12.0614 22.7685 12.0557 22.869 12.0674C22.9676 12.0785 23.0618 12.1071 23.1447 12.1511C23.2276 12.1951 23.2971 12.2534 23.3481 12.3216C23.4071 12.4158 23.4406 12.5189 23.4465 12.6241C23.4895 13.0357 23.39 13.4489 23.1586 13.8184C23.0496 14.0051 22.8913 14.1709 22.6946 14.3043C22.5349 14.4077 22.3443 14.4763 22.1414 14.5033C22.1414 14.5033 22.107 14.5076 22.0465 14.5154C22.0012 14.6509 21.9503 14.7649 21.9253 14.8255C21.8843 14.9087 21.8367 14.9897 21.7827 15.0679Z" fill="white"/>
<path d="M21.5279 7.93755C22.2536 8.25542 22.6119 8.80576 22.8458 9.2826C23.1882 9.98091 23.2816 11.1557 22.9225 12.0759C22.9047 12.0726 22.8866 12.0698 22.8684 12.0677C22.768 12.0559 22.6655 12.0616 22.5681 12.0843C22.4706 12.1071 22.3805 12.1464 22.3038 12.1995L21.7727 11.7382C21.6536 11.5008 21.5646 11.3118 21.4454 11.0744C21.3493 10.8672 21.2355 10.6656 21.1048 10.4708C20.9917 10.3235 20.7613 10.3623 20.5502 10.3326C19.8652 10.2363 20.0097 10.1159 19.5011 9.76422C18.8117 10.3567 18.0777 10.6007 17.1344 10.8362C16.6267 10.9629 15.7113 11.0849 15.0861 11.0684C14.4583 11.3582 13.54 11.5848 12.9761 11.7258L12.8333 12.1995C12.7567 12.1465 12.6666 12.1073 12.5693 12.0846C12.472 12.0618 12.3697 12.0561 12.2694 12.0678C12.249 12.0701 12.2287 12.0734 12.2088 12.0777L12.1489 11.9515C11.7962 11.2091 11.8149 10.0077 12.0971 9.16381C12.3875 8.29567 13.0692 7.45325 14.0355 7.10128L14.9018 6.62863C15.7457 6.04616 18.2559 6.08798 19.1169 6.3334C19.9386 6.56757 20.5636 6.98263 20.8626 7.46739L21.5279 7.93755Z" fill="#7A7473"/>
<path d="M15.3197 17.4542C15.3537 17.2093 15.3743 16.963 15.382 16.7166C15.3815 16.6751 15.3607 16.6354 15.3238 16.606C15.287 16.5766 15.2372 16.5599 15.1852 16.5596C15.1333 16.5604 15.0838 16.5772 15.0471 16.6064C15.0104 16.6357 14.9893 16.6752 14.9884 16.7166C14.9806 16.963 14.9601 17.2093 14.926 17.4542C14.9262 17.4958 14.9469 17.5357 14.9838 17.5652C15.0207 17.5946 15.0707 17.6112 15.1228 17.6113C15.1746 17.6101 15.2238 17.5932 15.2604 17.564C15.297 17.5348 15.3182 17.4955 15.3197 17.4542Z" fill="#211715"/>
<path d="M19.7239 16.7459C19.7296 16.9859 19.7504 17.2255 19.7863 17.4638C19.7876 17.5052 19.8087 17.5445 19.8453 17.5738C19.882 17.603 19.9313 17.6199 19.9831 17.6209C20.0793 17.6174 20.1929 17.5512 20.1799 17.4638C20.144 17.2255 20.1232 16.9859 20.1175 16.7459C20.1175 16.7043 20.0968 16.6643 20.0599 16.6349C20.023 16.6054 19.9729 16.5889 19.9207 16.5889C19.8685 16.5889 19.8184 16.6054 19.7815 16.6349C19.7446 16.6643 19.7239 16.7043 19.7239 16.7459Z" fill="#211715"/>
<path d="M15.3283 31.8431H10.9368V31.8412C10.9368 30.6331 10.9368 29.6662 10.9368 28.9581L8.79736 21.6854C8.92587 21.002 9.28243 20.3684 9.60923 20.2074C9.83773 20.0571 10.0819 19.9227 10.3391 19.8056C11.664 19.2306 12.8187 18.7487 14.3063 18.2505C14.4963 17.9442 14.752 17.6667 15.0618 17.4307C15.6802 17.9243 16.4033 18.3265 17.1977 18.6187C17.2419 18.6347 17.2913 18.6542 17.3055 18.6913C17.3125 18.7247 17.3037 18.759 17.2808 18.7876H17.8651C17.8422 18.759 17.8335 18.7247 17.8405 18.6913C17.8547 18.6542 17.9041 18.6347 17.9483 18.6187C18.7427 18.3265 19.4658 17.9243 20.0842 17.4307C20.3675 17.6454 20.6049 17.8955 20.7873 18.1712C22.5253 18.7292 23.7859 19.2526 25.256 19.8906C25.5089 20.0003 25.9712 20.1589 26.278 20.5727C26.864 21.1844 28.6026 25.5115 28.7423 26.5453C28.8273 27.1436 28.8225 27.748 28.728 28.3454C28.3547 29.8802 26.2022 29.5472 25.551 29.5297C25.1469 29.5013 24.7456 29.4521 24.3496 29.3824C24.3496 30.0363 24.3496 30.8598 24.3496 31.8432L15.3283 31.8431Z" fill="#65A0D4"/>
<path d="M24.5452 31.841C24.5452 31.0215 24.5455 30.2019 24.546 29.3822C24.546 29.1801 24.1524 29.1797 24.1524 29.3822C24.1514 30.2018 24.1511 31.0214 24.1516 31.841C24.1516 32.0432 24.5452 32.0435 24.5452 31.841Z" fill="#211715"/>
<path d="M11.1336 31.8414C11.1336 30.8804 11.1336 29.9194 11.1336 28.9583C11.1336 28.7562 10.74 28.7559 10.74 28.9583C10.74 29.9194 10.74 30.8804 10.74 31.8414C10.74 32.0436 11.1336 32.0439 11.1336 31.8414Z" fill="#211715"/>
<path d="M17.3889 18.8136C17.3894 19.8886 17.4127 20.9638 17.4268 22.0387C17.4335 22.5475 17.4404 23.0564 17.4474 23.5652C17.4502 23.7672 17.8438 23.7681 17.841 23.5652C17.8211 22.121 17.8028 20.6768 17.7861 19.2327C17.7846 19.093 17.7826 18.9533 17.7825 18.8138C17.7825 18.6117 17.3889 18.6114 17.3889 18.8138V18.8136Z" fill="#211715"/>
<path d="M17.4358 28.6449C17.4358 29.4931 17.4433 30.3414 17.4463 31.1896C17.4471 31.3967 17.4475 31.6037 17.4478 31.8108C17.4478 32.013 17.8414 32.0133 17.8414 31.8108C17.8414 30.8957 17.8348 29.9805 17.8309 29.0655C17.8303 28.9253 17.8294 28.7851 17.8294 28.6449C17.8294 28.4428 17.4358 28.4424 17.4358 28.6449Z" fill="#211715"/>
<path d="M10.937 32.0007H24.3517C24.605 32.0007 24.6054 31.6865 24.3517 31.6865H10.937C10.6837 31.6865 10.6832 32.0007 10.937 32.0007Z" fill="#211715"/>
<path d="M20.8309 18.3539C21.634 18.6142 22.4238 18.8986 23.2003 19.207C23.905 19.4866 24.5936 19.7894 25.2894 20.0827C25.6209 20.2223 25.9107 20.3924 26.1079 20.6525C26.2391 20.8252 26.5793 20.6675 26.4477 20.4939C26.2469 20.2355 25.9664 20.0225 25.633 19.8752C25.3231 19.7332 25.0031 19.6029 24.6878 19.4685C23.934 19.1471 23.1724 18.8375 22.3954 18.5534C21.9136 18.3772 21.4268 18.2098 20.9351 18.0513C20.8848 18.0405 20.8312 18.046 20.7859 18.0665C20.7406 18.087 20.7072 18.121 20.6931 18.161C20.6805 18.2011 20.6877 18.2436 20.7133 18.2796C20.7389 18.3156 20.7809 18.3423 20.8305 18.3542L20.8309 18.3539Z" fill="#211715"/>
<path d="M25.1618 21.3987C25.0322 22.0455 24.872 22.688 24.7365 23.3338C24.6146 23.9145 24.5212 24.4976 24.4562 25.0831C24.4159 25.4504 24.3807 25.8181 24.3472 26.1859C24.3476 26.2275 24.3685 26.2672 24.4053 26.2966C24.4421 26.326 24.4919 26.3426 24.544 26.343C24.5959 26.3422 24.6454 26.3254 24.6821 26.2961C24.7188 26.2668 24.7398 26.2273 24.7408 26.1859C24.7939 25.6034 24.8455 25.0193 24.9294 24.4385C25.0212 23.8024 25.1667 23.1718 25.3099 22.5421C25.3903 22.1892 25.4705 21.8362 25.5414 21.4818C25.5537 21.4417 25.5464 21.3994 25.5208 21.3634C25.4953 21.3275 25.4535 21.3007 25.404 21.2886C25.3537 21.2778 25.3001 21.2833 25.2548 21.3038C25.2095 21.3244 25.1761 21.3583 25.1619 21.3983L25.1618 21.3987Z" fill="#211715"/>
<path d="M14.399 18.0504C13.4218 18.3742 12.464 18.7313 11.5258 19.1219C11.0727 19.3096 10.6155 19.4959 10.1732 19.6993C9.93805 19.8141 9.7123 19.9406 9.49726 20.0782C9.35923 20.1617 9.24143 20.2646 9.14964 20.3819C8.85089 20.7549 8.6913 21.2098 8.60757 21.6435C8.59533 21.6836 8.60274 21.7259 8.62828 21.7618C8.65382 21.7977 8.69558 21.8245 8.74502 21.8367C8.79533 21.8475 8.84894 21.842 8.89425 21.8215C8.93955 21.8009 8.97291 21.767 8.9871 21.727C9.04992 21.3455 9.19626 20.9758 9.41944 20.6347C9.46091 20.5728 9.50831 20.5135 9.56123 20.4575C9.5714 20.447 9.59961 20.4212 9.61748 20.406C9.62929 20.3962 9.64143 20.3864 9.6539 20.3771C9.65955 20.3729 9.70884 20.3397 9.6794 20.3583C9.87895 20.2293 10.0882 20.1102 10.3061 20.0016C10.7238 19.7994 11.1679 19.6251 11.6008 19.4445C12.0337 19.2639 12.4715 19.0877 12.9129 18.9194C13.4369 18.7198 13.9672 18.5311 14.5038 18.3533C14.5532 18.341 14.595 18.3143 14.6205 18.2784C14.646 18.2425 14.6535 18.2002 14.6413 18.1601C14.6271 18.12 14.5938 18.0861 14.5485 18.0655C14.5032 18.045 14.4495 18.0395 14.3992 18.0504H14.399Z" fill="#211715"/>
<path d="M19.186 20.0944C19.872 19.5504 20.3212 18.8915 20.8279 18.2333C20.6394 17.9336 20.3876 17.6621 20.0835 17.4307C19.4651 17.9243 18.7419 18.3265 17.9476 18.6187C17.9034 18.6347 17.854 18.6542 17.8397 18.6913C17.8328 18.7247 17.8415 18.759 17.8643 18.7876C18.0016 18.9453 18.1491 19.0973 18.3062 19.2428C18.6068 19.5363 18.9842 19.896 19.186 20.0944Z" fill="white"/>
<path d="M15.9587 20.0944C15.2728 19.5504 14.8236 18.8915 14.3169 18.2333C14.5054 17.9336 14.7572 17.6621 15.0613 17.4307C15.6797 17.9243 16.4028 18.3265 17.1972 18.6187C17.2414 18.6347 17.2908 18.6542 17.305 18.6913C17.312 18.7247 17.3032 18.759 17.2804 18.7876C17.1431 18.9453 16.9956 19.0973 16.8385 19.2428C16.538 19.5363 16.1606 19.896 15.9587 20.0944Z" fill="white"/>
<path d="M19.3252 20.2058C19.845 19.7907 20.2483 19.298 20.6291 18.7988C20.7237 18.6744 20.8177 18.5497 20.9121 18.4257C20.9655 18.3556 21.0483 18.2801 21.018 18.1922C20.986 18.1246 20.9438 18.0604 20.8923 18.0009C20.712 17.7492 20.4866 17.5199 20.2231 17.3203C20.1857 17.2915 20.1358 17.2754 20.0839 17.2754C20.032 17.2754 19.9821 17.2915 19.9447 17.3203C19.4201 17.7403 18.8168 18.0925 18.1564 18.3644C18.0798 18.3959 18.0028 18.4263 17.9253 18.4554C17.8377 18.4794 17.7593 18.5211 17.698 18.5766C17.5996 18.6852 17.6457 18.8164 17.7354 18.9176C17.9273 19.1342 18.148 19.3365 18.3594 19.541C18.5885 19.7628 18.82 19.9831 19.0473 20.2061C19.0844 20.2353 19.1344 20.2516 19.1864 20.2516C19.2385 20.2516 19.2885 20.2353 19.3256 20.2061C19.3614 20.1762 19.3814 20.1364 19.3814 20.095C19.3814 20.0537 19.3614 20.0139 19.3256 19.984C19.0911 19.7538 18.8522 19.5266 18.6158 19.2977C18.4846 19.1707 18.3534 19.0435 18.2252 18.9147C18.1801 18.8694 18.135 18.8241 18.0919 18.7773C18.0685 18.7518 18.0322 18.7216 18.0369 18.6919L18.0098 18.7709L17.9941 18.7765C18.0067 18.7702 18.0199 18.7646 18.0335 18.7597C18.0581 18.7501 18.0834 18.7414 18.1083 18.7322C18.1547 18.7147 18.2009 18.697 18.2468 18.679C18.3457 18.6397 18.4434 18.5987 18.5399 18.5559C18.7441 18.4653 18.9426 18.3672 19.1354 18.2614C19.5253 18.0494 19.8894 17.8086 20.2228 17.5422H19.9443C20.2354 17.7649 20.4766 18.0256 20.6578 18.3131V18.1545C20.1688 18.7906 19.7132 19.4515 19.0468 19.9838C18.8676 20.1268 19.1458 20.3491 19.3252 20.2058Z" fill="#211715"/>
<path d="M16.0978 19.983C15.4313 19.4507 14.9758 18.7897 14.4868 18.1537V18.3122C14.6679 18.0248 14.9092 17.7641 15.2002 17.5414H14.9219C15.2553 17.8078 15.6193 18.0486 16.0092 18.2606C16.1971 18.3634 16.3904 18.4593 16.5893 18.5486C16.6858 18.5917 16.7835 18.633 16.8825 18.6724C16.9334 18.6927 16.9847 18.7124 17.0363 18.7317C17.0568 18.7393 17.0773 18.7464 17.0977 18.7542C17.1114 18.7588 17.1247 18.7641 17.1375 18.7702C17.1558 18.7779 17.1549 18.778 17.1348 18.7702L17.1078 18.6909C17.1175 18.751 16.9755 18.8576 16.9298 18.9035C16.798 19.0358 16.6636 19.1663 16.529 19.2967C16.2926 19.5257 16.0533 19.7528 15.8192 19.983C15.7837 20.013 15.7639 20.0527 15.7639 20.094C15.7639 20.1353 15.7837 20.1751 15.8192 20.2051C15.8563 20.2342 15.9063 20.2506 15.9584 20.2506C16.0104 20.2506 16.0604 20.2342 16.0975 20.2051C16.5174 19.7928 16.9586 19.3935 17.3604 18.9697C17.4458 18.8969 17.4964 18.8026 17.5035 18.7031C17.4972 18.5291 17.2744 18.4768 17.112 18.4131C16.782 18.2828 16.4647 18.1329 16.163 17.9645C15.8183 17.7731 15.496 17.5571 15.2002 17.3192C15.1629 17.2905 15.113 17.2744 15.0611 17.2744C15.0091 17.2744 14.9593 17.2905 14.9219 17.3192C14.6625 17.5156 14.44 17.7409 14.2613 17.9881C14.2062 18.051 14.1611 18.1192 14.1269 18.191C14.0978 18.2753 14.172 18.3447 14.2234 18.412C14.3213 18.5404 14.418 18.6693 14.5159 18.7981C14.8962 19.2974 15.2995 19.79 15.8194 20.2052C15.9987 20.3483 16.2771 20.1261 16.0978 19.983Z" fill="#211715"/>
<path d="M3.21261 21.6832C3.2343 21.6347 3.27478 21.593 3.32818 21.5641C3.38157 21.5353 3.44511 21.5207 3.50956 21.5226C5.85182 21.5887 12.6329 21.855 14.441 21.9261C14.542 21.9301 14.6382 21.9616 14.7136 22.0153C14.789 22.069 14.839 22.1417 14.8554 22.2213C15.1238 23.5204 16.1061 28.032 16.3664 29.2048L16.3884 29.3044C16.341 29.325 16.2917 29.3426 16.2408 29.3571C16.0997 29.3924 15.9522 29.4086 15.8045 29.4049C12.039 29.232 8.7501 28.9588 5.00658 28.7818C4.90143 28.777 4.80142 28.7439 4.72291 28.6879C4.64439 28.6319 4.59201 28.5562 4.57433 28.4734C4.26557 27.014 3.47118 23.1668 3.199 21.8027C3.1908 21.7626 3.19548 21.7215 3.21261 21.6832Z" fill="#C6C6C6"/>
<path d="M16.1139 28.0558C16.0387 27.7121 15.9543 27.3252 15.8655 26.917L16.0033 26.9394L16.6682 27.0473C17.0537 27.1155 18.5916 27.4334 19.1916 27.6077L19.0239 27.7159C18.2585 28.2104 16.8583 29.0515 16.5273 29.2357C16.4829 29.2608 16.4365 29.2835 16.3884 29.3036L16.3663 29.2042C16.3105 28.9532 16.2217 28.5488 16.1139 28.0558Z" fill="#C6C6C6"/>
<path d="M16.6916 27.0504C17.0776 27.1186 18.6202 27.4378 19.218 27.6117C19.3997 27.1476 19.6603 26.4884 19.8494 25.9952C19.5941 25.9273 19.3371 25.8636 19.0786 25.8043L18.3606 24.812C18.2358 24.6395 18.1016 24.4593 17.8859 24.3591C17.6744 24.2609 17.4175 24.2547 17.1728 24.2513C16.816 24.2347 16.4581 24.2435 16.1032 24.2775L15.3 24.3564L15.8748 26.9334L16.6916 27.0504Z" fill="white"/>
<path d="M19.2467 27.4573C18.7536 27.3147 18.2421 27.2086 17.7359 27.1009C17.3623 27.0213 16.988 26.9394 16.6089 26.8779L16.0554 26.788C16.0051 26.778 15.9519 26.7838 15.9068 26.8042C15.8617 26.8246 15.8282 26.8582 15.8133 26.8978C15.7999 26.9379 15.8068 26.9807 15.8325 27.0168C15.8583 27.0529 15.9007 27.0796 15.9507 27.091C16.7626 27.2227 17.5617 27.3814 18.358 27.5642C18.621 27.6246 18.8846 27.6858 19.142 27.7605C19.1924 27.7713 19.2459 27.7658 19.2912 27.7452C19.3365 27.7247 19.3699 27.6908 19.3842 27.6509C19.397 27.6107 19.3898 27.5682 19.3642 27.5322C19.3385 27.4962 19.2964 27.4695 19.2467 27.4577V27.4573Z" fill="#211715"/>
<path d="M19.9017 25.8594C19.6375 25.788 19.375 25.7127 19.1071 25.6507L19.2247 25.7227L18.666 24.951C18.5053 24.7289 18.357 24.4733 18.1065 24.3049C17.8335 24.1216 17.4914 24.0974 17.1487 24.0921C16.8106 24.0806 16.4718 24.0882 16.135 24.1151C16.0833 24.1163 16.0342 24.1333 15.9976 24.1625C15.961 24.1917 15.9398 24.2309 15.9382 24.2722C15.9386 24.3137 15.9594 24.3536 15.9962 24.383C16.0331 24.4124 16.0829 24.429 16.135 24.4292C16.4419 24.4035 16.7507 24.3953 17.059 24.4048C17.3146 24.409 17.6144 24.3938 17.8282 24.527C18.0516 24.6663 18.1779 24.9047 18.3162 25.0958L18.8148 25.7849C18.8705 25.8619 18.9091 25.9282 19.0212 25.958C19.106 25.9805 19.1925 25.9992 19.2775 26.0213C19.4512 26.0666 19.6235 26.1155 19.7967 26.1623C20.0372 26.2274 20.1403 25.924 19.9014 25.8594H19.9017Z" fill="#211715"/>
<path d="M16.3201 29.4196C16.6185 29.2259 16.4945 28.8846 16.4382 28.6286C16.389 28.4033 16.3396 28.178 16.2901 27.9526C16.1669 27.3895 16.0442 26.8264 15.9219 26.2633C15.6754 25.1289 15.4307 23.9941 15.1879 22.8588C15.1478 22.67 15.108 22.4812 15.0685 22.2924C15.0554 22.1614 14.9933 22.0365 14.8903 21.934C14.8238 21.8796 14.7442 21.8367 14.6563 21.8079C14.5683 21.779 14.4739 21.7648 14.3788 21.7661C13.9141 21.7479 13.4494 21.7296 12.9847 21.7114C11.5676 21.6562 10.1504 21.6016 8.73314 21.5478C7.32722 21.4949 5.92113 21.4443 4.51489 21.396C4.25952 21.3876 4.0041 21.3795 3.74862 21.3716C3.611 21.3567 3.47113 21.3618 3.3358 21.3867C3.22212 21.4193 3.12674 21.4832 3.06682 21.5668C3.0069 21.6505 2.98637 21.7486 3.00892 21.8433C3.09298 22.2959 3.19139 22.747 3.28381 23.1983C3.53311 24.4188 3.78459 25.6389 4.03827 26.8587C4.14214 27.3592 4.24665 27.8595 4.35178 28.3598C4.3795 28.4915 4.40016 28.6171 4.50488 28.7273C4.66275 28.8934 4.88014 28.9323 5.12813 28.9442C5.69802 28.9715 6.26767 29.0013 6.83706 29.0335C9.05477 29.1583 11.2695 29.3142 13.487 29.4411C14.0542 29.4735 14.6216 29.5039 15.1891 29.5321C15.4543 29.5452 15.7303 29.5775 15.9955 29.5551C16.2286 29.5369 16.4517 29.4705 16.6427 29.3624C17.1931 29.0548 17.724 28.7232 18.2558 28.396C18.5603 28.2085 18.864 28.0201 19.163 27.8271C19.1997 27.7975 19.2202 27.7576 19.2202 27.716C19.2202 27.6744 19.1997 27.6345 19.163 27.6049C19.1256 27.5764 19.0757 27.5604 19.0239 27.5604C18.972 27.5604 18.9222 27.5764 18.8847 27.6049C18.288 27.9901 17.6764 28.361 17.0622 28.7282C16.8563 28.8513 16.651 28.976 16.4399 29.0935C16.2801 29.1877 16.0884 29.2412 15.8898 29.2472C15.6251 29.255 15.3529 29.2262 15.0886 29.213C12.9169 29.1048 10.7488 28.9567 8.57937 28.8227C7.48328 28.755 6.38677 28.6914 5.28944 28.6379C5.11345 28.6293 4.87367 28.654 4.78715 28.4979C4.74961 28.4036 4.7261 28.3061 4.71712 28.2074C4.67004 27.9838 4.62319 27.7602 4.57656 27.5365C4.33169 26.3633 4.08886 25.1899 3.84809 24.0161C3.73831 23.4823 3.62919 22.9484 3.52072 22.4145C3.48038 22.216 3.4403 22.0174 3.4005 21.819C3.3987 21.8101 3.3923 21.7626 3.3923 21.7797C3.38899 21.7576 3.39517 21.7353 3.40985 21.7164C3.44462 21.6762 3.4962 21.6791 3.5518 21.6807C3.66055 21.6838 3.76931 21.687 3.87811 21.6904C5.14166 21.7292 6.40481 21.7761 7.66795 21.8228C9.12286 21.8764 10.5774 21.9316 12.0317 21.9883C12.5948 22.0101 13.1577 22.0321 13.7203 22.0542L14.3253 22.0779C14.4332 22.0822 14.5411 22.0823 14.6139 22.158C14.6795 22.2264 14.6807 22.3373 14.698 22.4204C14.9063 23.4168 15.1228 24.4121 15.3383 25.4076C15.5719 26.4857 15.8068 27.5637 16.0429 28.6415C16.0625 28.7305 16.082 28.8196 16.1017 28.9087C16.1231 29.0059 16.1504 29.1266 16.0415 29.1973C16.0049 29.2269 15.9844 29.2668 15.9844 29.3084C15.9844 29.3499 16.0049 29.3898 16.0415 29.4194C16.079 29.4481 16.1289 29.4641 16.1809 29.4641C16.2328 29.4641 16.2828 29.4481 16.3203 29.4194L16.3201 29.4196Z" fill="#211715"/>
<path d="M7.4847 27.0332C7.43993 26.8646 7.26574 26.6781 6.97848 26.7199C6.79855 26.7461 6.68178 26.8673 6.66816 27.0406C6.64996 27.2733 6.71286 27.5363 6.817 27.9641C6.89696 28.2922 6.9993 28.6719 7.10559 28.9822C7.27599 29.2987 7.52382 29.5066 7.88916 29.5493C8.11303 29.5804 9.51108 29.6875 10.1398 29.6657C10.6811 29.6218 11.4941 29.627 11.4883 29.1611C11.2864 29.1135 11.108 29.0237 11.0298 29.0131C11.0025 28.9599 10.9806 28.905 10.9642 28.849C10.8788 28.5625 10.6556 28.0398 10.4363 27.9234C10.2602 27.8299 9.95908 27.8284 9.87043 28.0161C9.87043 28.0161 9.84583 28.0689 9.80737 28.1502C9.78146 28.0697 9.75513 27.986 9.72848 27.8971C9.63377 27.5948 9.5188 27.2967 9.38405 27.0042C9.35783 26.9356 9.31086 26.8732 9.2473 26.8225C9.18373 26.7717 9.10551 26.7343 9.01953 26.7134C8.83092 26.6607 8.54874 26.757 8.51839 26.9461L8.4851 27.1533L8.38029 26.781C8.26286 26.3636 7.93311 26.2501 7.69226 26.3183C7.42164 26.3949 7.36423 26.6259 7.46748 26.9655" fill="white"/>
<path d="M10.0599 28.0576C10.0435 28.0886 10.09 28.0118 10.0698 28.0484C10.0868 28.0362 10.0871 28.0353 10.0705 28.0447C10.0801 28.0392 10.0902 28.0342 10.1006 28.0297C10.1211 28.0216 10.1217 28.0212 10.1024 28.0285C10.1137 28.0254 10.1252 28.0228 10.1368 28.0207C10.16 28.0172 10.1605 28.0169 10.1384 28.0196C10.1506 28.0188 10.163 28.0183 10.1751 28.0183C10.1873 28.0183 10.1997 28.0188 10.2121 28.0195C10.1906 28.0166 10.1917 28.0168 10.2152 28.0201C10.2398 28.0247 10.263 28.0295 10.2867 28.036C10.251 28.0261 10.3141 28.0477 10.3216 28.0511C10.3475 28.0629 10.3478 28.0703 10.3272 28.0529C10.3839 28.0973 10.4306 28.1492 10.4653 28.2063C10.5146 28.2788 10.5576 28.354 10.594 28.4313C10.6755 28.5999 10.7291 28.7726 10.7922 28.9455C10.8074 28.9962 10.83 29.0454 10.8596 29.0919C10.889 29.1289 10.9353 29.1555 10.9886 29.166C10.9955 29.168 11.0532 29.1849 11.0167 29.1726C11.1508 29.2174 11.2786 29.2715 11.4175 29.3075C11.659 29.3701 11.7625 29.0669 11.5222 29.0046C11.3734 28.966 11.2343 28.8868 11.0818 28.861L11.2193 28.9707C11.1404 28.8111 11.1021 28.6392 11.0323 28.4766C10.9647 28.3035 10.8721 28.1371 10.7564 27.9811C10.7077 27.9108 10.6398 27.8502 10.5579 27.8037C10.4759 27.7571 10.3819 27.7258 10.2828 27.7121C10.1598 27.6915 10.0316 27.7066 9.92118 27.7546C9.81078 27.8025 9.72534 27.8802 9.68015 27.9739C9.6666 28.014 9.67344 28.0568 9.69918 28.093C9.72493 28.1292 9.7675 28.1558 9.81767 28.1671C9.86796 28.1771 9.92115 28.1713 9.96622 28.1509C10.0113 28.1305 10.0448 28.097 10.0598 28.0574L10.0599 28.0576Z" fill="#211715"/>
<path d="M10.1898 28.7002C10.0183 28.1504 9.8545 27.5948 9.61767 27.0602C9.57715 26.9483 9.51261 26.8428 9.42692 26.7485C9.32449 26.65 9.18439 26.581 9.02812 26.5522C8.72872 26.4998 8.38125 26.6543 8.32811 26.9039C8.31577 26.944 8.32313 26.9864 8.34869 27.0223C8.37424 27.0582 8.41606 27.085 8.46556 27.0971C8.51587 27.1078 8.56946 27.1023 8.61475 27.0818C8.66005 27.0613 8.69341 27.0274 8.70764 26.9874C8.74044 26.8333 8.94431 26.8298 9.07814 26.9113C9.1422 26.957 9.18828 27.0166 9.21083 27.0827C9.25561 27.1809 9.29768 27.28 9.33794 27.3794C9.52434 27.8396 9.66392 28.3142 9.8103 28.7835C9.87148 28.9798 10.2512 28.8965 10.1898 28.7V28.7002Z" fill="#211715"/>
<path d="M9.15709 28.6927C8.99422 28.1588 8.83103 27.625 8.67218 27.0903C8.60568 26.8668 8.56853 26.6116 8.40599 26.4174C8.23993 26.2191 7.94028 26.0836 7.63931 26.1663C7.18352 26.2915 7.1845 26.6917 7.27709 27.0067C7.3349 27.2034 7.71459 27.1201 7.65662 26.9232C7.61323 26.8107 7.60479 26.6914 7.63201 26.5757C7.63952 26.5463 7.65812 26.5194 7.68533 26.4987C7.71254 26.478 7.74705 26.4644 7.78422 26.4598C7.79029 26.4583 7.82522 26.4539 7.79939 26.4566C7.77356 26.4593 7.80915 26.4566 7.81579 26.4566C7.82719 26.457 7.83875 26.4566 7.85015 26.457C7.88058 26.4575 7.81948 26.4517 7.85015 26.4565C7.8928 26.4593 7.93342 26.4723 7.96676 26.4937C8.05614 26.5528 8.12174 26.6316 8.15538 26.7202C8.22918 26.8969 8.26756 27.0878 8.32169 27.269C8.39353 27.5098 8.46607 27.7506 8.53933 27.9911C8.61872 28.2529 8.69834 28.5147 8.77822 28.7765C8.83816 28.9728 9.21785 28.8896 9.15783 28.693L9.15709 28.6927Z" fill="#211715"/>
<path d="M6.93568 29.0612C7.10707 29.3733 7.40385 29.645 7.84382 29.7015C8.116 29.7364 8.39326 29.7532 8.66749 29.7716C9.40063 29.8209 10.1393 29.861 10.8686 29.7594C11.2746 29.7029 11.6714 29.5389 11.6852 29.171C11.6929 28.9688 11.2992 28.969 11.2916 29.171C11.2926 29.2079 11.2811 29.2444 11.2583 29.2765C11.2354 29.3087 11.2022 29.3353 11.162 29.3536C11.0382 29.4068 10.9034 29.4416 10.764 29.4563C10.4645 29.4962 10.161 29.5144 9.8574 29.5106C9.22755 29.4997 8.59879 29.4633 7.97355 29.4016C7.94567 29.399 8.01865 29.4076 7.96412 29.4003C7.92968 29.3958 7.89532 29.3916 7.86137 29.3851C7.77616 29.3691 7.69582 29.3397 7.62511 29.2985C7.46736 29.1931 7.34683 29.0566 7.27543 28.9026C7.24883 28.8669 7.20566 28.8409 7.15526 28.8304C7.10486 28.8198 7.05128 28.8255 7.00612 28.8463C6.96205 28.868 6.93015 28.9025 6.917 28.9425C6.90386 28.9825 6.91049 29.025 6.93551 29.0612H6.93568Z" fill="#211715"/>
<path d="M8.17306 28.6103C8.07465 28.3054 7.97827 28 7.88391 27.694C7.83847 27.5472 7.79375 27.4003 7.74974 27.2534C7.71866 27.149 7.6989 27.0379 7.6556 26.9362C7.62551 26.8566 7.57332 26.7834 7.5029 26.7221C7.43248 26.6608 7.34564 26.6129 7.24885 26.5821C7.14182 26.5519 7.02602 26.5475 6.91587 26.5694C6.80572 26.5914 6.70611 26.6387 6.62945 26.7055C6.36236 26.9542 6.47864 27.3569 6.54285 27.648C6.64438 28.1092 6.76189 28.5708 6.91574 29.0229C6.982 29.2177 7.36185 29.135 7.29526 28.9393C7.17225 28.5778 7.0768 28.2107 6.98774 27.8431C6.94994 27.6872 6.91024 27.5311 6.88425 27.3736C6.8585 27.2575 6.85279 27.1391 6.86727 27.0218C6.88663 26.9199 6.97339 26.8471 7.10755 26.8752C7.22851 26.9006 7.27558 27.0054 7.30051 27.0949C7.3639 27.3232 7.4341 27.5503 7.5043 27.7772C7.59888 28.0829 7.69526 28.3884 7.79345 28.6935C7.8566 28.8891 8.23629 28.8062 8.17306 28.61V28.6103Z" fill="#211715"/>
<path d="M26.1076 20.6523C26.215 20.7755 26.3057 20.9075 26.3782 21.046C26.4055 21.0932 26.4322 21.1407 26.4583 21.1884C26.4723 21.2139 26.4862 21.2396 26.5 21.2653C26.5054 21.2753 26.5196 21.3021 26.5063 21.277C26.5152 21.2938 26.524 21.3107 26.5328 21.3275C26.5948 21.4465 26.6549 21.5661 26.7132 21.6863C27.003 22.2832 27.2626 22.8895 27.5102 23.4983C27.7611 24.1159 27.9987 24.7373 28.2112 25.3641C28.2951 25.6115 28.3752 25.8598 28.4447 26.1102C28.4711 26.2055 28.4961 26.3011 28.5172 26.3973C28.5263 26.4381 28.5336 26.4792 28.5418 26.5201C28.544 26.5312 28.5361 26.4803 28.5402 26.511C28.5413 26.5188 28.5426 26.5265 28.5437 26.5343C28.5511 26.5851 28.5572 26.636 28.5632 26.6869C28.6162 27.1462 28.6172 27.6084 28.5661 28.0678C28.5535 28.2653 28.5015 28.46 28.4122 28.6444C28.343 28.7756 28.2442 28.8956 28.1207 28.9982C27.8921 29.1796 27.6013 29.3028 27.2851 29.3524C27.2009 29.3683 27.1159 29.3807 27.0303 29.3907C27.007 29.3934 27.0315 29.3907 27.0353 29.3903C27.0259 29.3912 27.0164 29.3922 27.0069 29.3931C26.988 29.3948 26.9691 29.3966 26.9502 29.3982C26.9064 29.4018 26.8625 29.4049 26.8184 29.4072C26.6584 29.4161 26.4979 29.4171 26.3377 29.4132C26.0892 29.4073 25.8424 29.3848 25.5942 29.3746C25.5122 29.3712 25.4308 29.3674 25.3492 29.36C25.3246 29.3577 25.2996 29.3552 25.2748 29.3528C25.2474 29.3501 25.2502 29.3501 25.2784 29.3532C25.2614 29.3514 25.2445 29.3495 25.2275 29.3475C25.1673 29.3407 25.1075 29.3334 25.0479 29.3255C24.3693 29.2377 23.6966 29.1176 23.0272 28.9937C22.2571 28.8513 21.4897 28.698 20.7282 28.5287C20.4171 28.4595 20.1067 28.3877 19.7993 28.3085C19.6801 28.2778 19.5615 28.246 19.4439 28.2115C19.3971 28.1979 19.3507 28.1836 19.3045 28.1688C19.2933 28.1652 19.2823 28.1615 19.2712 28.1579C19.2585 28.1539 19.3161 28.1741 19.2826 28.1616C19.2639 28.1547 19.2449 28.1486 19.2263 28.1414C19.1991 28.1311 19.1719 28.1204 19.146 28.1081C19.1364 28.1035 19.1271 28.0978 19.1172 28.0937C19.0782 28.0774 19.1569 28.1211 19.1287 28.1002L19.1793 28.253C19.46 27.4865 19.7808 26.7292 20.0711 25.965C20.1303 25.8091 20.1915 25.6533 20.2419 25.4955L19.9997 25.6052C20.6486 25.7295 21.3008 25.8423 21.9515 25.9598C22.6754 26.0907 23.4013 26.2178 24.1207 26.3642C24.1781 26.3759 24.2355 26.3892 24.2929 26.4003C24.4491 26.4228 24.6069 26.4374 24.7654 26.4441C25.106 26.4735 25.4467 26.5055 25.789 26.5192C26.0421 26.5293 26.0415 26.2152 25.789 26.2051C25.4912 26.1932 25.1946 26.167 24.8983 26.1415C24.6924 26.1308 24.4877 26.1082 24.2859 26.0737C23.9861 26.0115 23.6841 25.9555 23.3823 25.8993C22.596 25.7529 21.8078 25.6123 21.0205 25.4702C20.7149 25.415 20.409 25.3606 20.1044 25.3022C20.054 25.2919 20.0006 25.2975 19.9555 25.318C19.9103 25.3385 19.8769 25.3722 19.8623 25.412C19.7519 25.7577 19.6093 26.098 19.4768 26.4386C19.3066 26.8758 19.1338 27.3125 18.9624 27.7495C18.9076 27.8893 18.8514 28.0289 18.8 28.1695C18.7906 28.1963 18.7903 28.2245 18.7992 28.2514C18.8081 28.2783 18.8258 28.3028 18.8506 28.3223C18.9753 28.4139 19.1554 28.4598 19.3107 28.5056C19.5716 28.5834 19.8383 28.6488 20.1052 28.7122C20.8473 28.8886 21.5977 29.0426 22.3504 29.188C23.0884 29.3307 23.8303 29.4661 24.5773 29.5769C25.0369 29.6418 25.5007 29.6864 25.9664 29.7106C26.6331 29.7504 27.3465 29.7447 27.951 29.4878C28.2953 29.3412 28.5711 29.1098 28.7373 28.828C28.9817 28.4101 28.9909 27.9253 28.9982 27.4716C29.0082 27.1015 28.9781 26.7315 28.908 26.3655C28.8649 26.1542 28.8034 25.9452 28.7394 25.7373C28.5532 25.1335 28.3317 24.5363 28.1002 23.9427C27.8476 23.2948 27.5796 22.651 27.2871 22.0142C27.0757 21.5542 26.8661 21.0799 26.5702 20.6491C26.5342 20.5948 26.4933 20.5426 26.4477 20.4931C26.4203 20.4581 26.3771 20.4328 26.3271 20.4223C26.2771 20.4118 26.2239 20.417 26.1785 20.4367C26.1337 20.4579 26.1011 20.4924 26.0879 20.5326C26.0747 20.5728 26.0819 20.6156 26.1079 20.6517L26.1076 20.6523Z" fill="#211715"/>
<path d="M22.4434 12.3104C22.5456 12.2432 22.6769 12.2109 22.8088 12.2206C22.9408 12.2303 23.0625 12.2813 23.1475 12.3623C23.2469 12.4667 23.2533 12.6156 23.2585 12.7408C23.2649 12.8777 23.254 13.0148 23.2257 13.15C23.1178 13.649 22.7857 14.2571 22.0888 14.352C22.0387 14.3634 21.9962 14.39 21.9704 14.4262C21.9447 14.4623 21.9379 14.5051 21.9513 14.5452C21.9662 14.5849 21.9997 14.6184 22.0448 14.6388C22.0899 14.6593 22.1431 14.665 22.1934 14.6549C22.8955 14.5592 23.3143 14.0362 23.5137 13.5324C23.6228 13.258 23.6683 12.97 23.6479 12.6825C23.627 12.4062 23.5276 12.1452 23.2097 11.9996C23.0453 11.9262 22.8565 11.8954 22.6693 11.9113C22.482 11.9272 22.3056 11.989 22.1642 12.0883C22.1277 12.118 22.1073 12.1578 22.1073 12.1994C22.1073 12.2409 22.1277 12.2808 22.1642 12.3104C22.2016 12.3392 22.2515 12.3552 22.3034 12.3552C22.3553 12.3552 22.4051 12.3392 22.4425 12.3104H22.4434Z" fill="#211715"/>
<path d="M21.9374 14.0843C21.9257 14.2496 21.8871 14.4129 21.8226 14.5703C21.8004 14.6292 21.776 14.6877 21.7515 14.7462C21.7452 14.7612 21.7391 14.7763 21.7322 14.7911C21.7294 14.7977 21.7258 14.8036 21.7231 14.8099C21.709 14.8426 21.7345 14.7896 21.7256 14.8053C21.6339 14.9643 21.5287 15.1181 21.4108 15.2657C21.0778 15.7055 20.653 16.0967 20.1548 16.4223C19.8812 16.6024 19.5611 16.7318 19.2174 16.8015C18.9705 16.8467 19.075 17.1496 19.322 17.1044C20.0254 16.9757 20.6141 16.5706 21.0778 16.1472C21.4685 15.8022 21.7952 15.4143 22.0479 14.9953C22.2152 14.7091 22.3113 14.3997 22.3311 14.0842C22.3393 13.882 21.9456 13.8822 21.9374 14.0842V14.0843Z" fill="#211715"/>
<path d="M12.9728 12.088C12.8498 12.0011 12.6994 11.9425 12.5378 11.9185C12.3763 11.8945 12.2096 11.9059 12.0555 11.9517C11.716 12.0588 11.5455 12.2859 11.5021 12.5674C11.4194 13.1294 11.5991 13.696 12.0069 14.1589C12.2374 14.4076 12.5547 14.6016 12.9441 14.6546C12.9943 14.6645 13.0474 14.6587 13.0925 14.6383C13.1375 14.6179 13.171 14.5845 13.1861 14.545C13.1996 14.5048 13.1927 14.462 13.167 14.4259C13.1413 14.3897 13.0988 14.3631 13.0487 14.3518C12.3516 14.2568 12.0196 13.6487 11.9118 13.1497C11.8835 13.0146 11.8725 12.8775 11.879 12.7405C11.8841 12.6155 11.8907 12.4662 11.9899 12.3621C12.075 12.281 12.1967 12.2301 12.3286 12.2203C12.4605 12.2106 12.5919 12.2429 12.6941 12.3102C12.7316 12.3387 12.7815 12.3546 12.8333 12.3546C12.8851 12.3546 12.9349 12.3387 12.9724 12.3102C13.0089 12.2805 13.0294 12.2407 13.0294 12.1991C13.0294 12.1576 13.0089 12.1177 12.9724 12.088H12.9728Z" fill="#211715"/>
<path d="M12.8352 14.0267C12.9462 14.5853 13.1873 15.1223 13.5461 15.61C13.9551 16.1466 14.5492 16.6321 15.2499 16.9261C15.6219 17.0824 16.0281 17.1801 16.4464 17.214C16.4985 17.2138 16.5483 17.1971 16.5852 17.1677C16.622 17.1383 16.6429 17.0986 16.6432 17.057C16.6421 17.0156 16.621 16.9762 16.5843 16.9469C16.5477 16.9176 16.4982 16.9008 16.4464 16.8999C15.0228 16.7826 13.9147 15.7649 13.4682 14.741C13.3567 14.481 13.2719 14.2142 13.2148 13.9432C13.2005 13.9032 13.1672 13.8693 13.1219 13.8488C13.0766 13.8282 13.023 13.8228 12.9727 13.8335C12.923 13.8454 12.8809 13.8721 12.8553 13.9081C12.8297 13.9441 12.8225 13.9866 12.8352 14.0267Z" fill="#211715"/>
<path d="M21.032 7.38766C20.5924 6.6868 19.6269 6.21487 18.6771 6.08568C17.7872 5.96487 16.8775 5.97187 15.9907 6.10636C15.5561 6.17397 15.105 6.28418 14.7622 6.5171C14.7258 6.54675 14.7053 6.58664 14.7053 6.6282C14.7053 6.66975 14.7258 6.70964 14.7622 6.73929C14.7997 6.76795 14.8495 6.78396 14.9014 6.78396C14.9533 6.78396 15.0031 6.76795 15.0406 6.73929C15.054 6.73013 15.0675 6.72103 15.0816 6.71239C15.0562 6.7281 15.0912 6.70729 15.0998 6.70258C15.1334 6.68419 15.1674 6.66658 15.2026 6.65022C15.2739 6.61736 15.3475 6.58794 15.4232 6.56213C15.595 6.50809 15.7718 6.46509 15.9522 6.43353C16.3708 6.36187 16.7975 6.32428 17.2257 6.32135C18.013 6.30826 18.7898 6.34203 19.5002 6.63615C19.9976 6.84204 20.4386 7.14192 20.6923 7.54637C20.8057 7.7272 21.1454 7.5683 21.0322 7.3878L21.032 7.38766Z" fill="#211715"/>
<path d="M13.9358 6.96555C13.0865 7.27969 12.4898 7.91962 12.1348 8.59378C11.7707 9.28502 11.6541 10.059 11.6943 10.8045C11.7043 11.2093 11.7935 11.6103 11.9587 11.9931C11.9738 12.0327 12.0073 12.0661 12.0523 12.0865C12.0974 12.1069 12.1505 12.1127 12.2008 12.1028C12.2509 12.0914 12.2934 12.0648 12.3191 12.0287C12.3448 11.9925 12.3517 11.9498 12.3382 11.9096C12.0385 11.2687 12.0338 10.5352 12.1312 9.86363C12.2307 9.17684 12.516 8.4947 13.0515 7.9439C13.3365 7.64246 13.7078 7.39997 14.1345 7.23676C14.1792 7.2155 14.2117 7.18106 14.2249 7.14087C14.2381 7.10067 14.231 7.05795 14.2051 7.0219C14.178 6.98662 14.1348 6.96106 14.0846 6.95056C14.0345 6.94006 13.9811 6.94543 13.9358 6.96555Z" fill="#211715"/>
<path d="M21.429 8.07371C22.022 8.33791 22.3902 8.79361 22.6371 9.2861C22.8948 9.80057 22.9715 10.3693 22.9521 10.9198C22.9424 11.2688 22.8792 11.6155 22.7639 11.9523C22.6955 12.1473 23.0755 12.2306 23.1434 12.0359C23.3573 11.3962 23.4065 10.7285 23.2881 10.0731C23.204 9.51542 22.96 8.98065 22.575 8.51036C22.3331 8.21842 22.0085 7.97595 21.6276 7.8025C21.4062 7.70387 21.2075 7.97508 21.429 8.07371Z" fill="#211715"/>
<path d="M19.5073 9.52311C19.095 9.91042 18.5778 10.2179 17.9948 10.4222C17.4242 10.6221 16.824 10.763 16.2086 10.8415C15.8435 10.892 15.4732 10.9157 15.1026 10.9121C14.8492 10.9074 14.8493 11.2215 15.1026 11.2262C15.4538 11.2287 15.8047 11.2079 16.1516 11.1642C16.4781 11.1292 16.8011 11.0759 17.1182 11.0045C17.7426 10.8592 18.3745 10.6718 18.9136 10.3763C19.2377 10.1973 19.5309 9.98508 19.7856 9.7451C19.8213 9.71514 19.8412 9.67538 19.8412 9.63404C19.8412 9.5927 19.8213 9.55294 19.7856 9.52298C19.7485 9.49386 19.6985 9.47754 19.6464 9.47754C19.5944 9.47754 19.5444 9.49386 19.5073 9.52298V9.52311Z" fill="#211715"/>
<path d="M16.231 10.2546C15.877 10.4822 15.4941 10.6796 15.0886 10.8436C14.6281 11.0413 14.1531 11.2167 13.6662 11.3688C13.4223 11.4448 13.1753 11.5148 12.9242 11.5743C12.682 11.6318 12.7848 11.935 13.0289 11.8772C13.5179 11.7573 13.9962 11.6111 14.4606 11.4397C14.9478 11.2673 15.4196 11.0683 15.8725 10.8441C16.0954 10.7339 16.3082 10.6111 16.5092 10.4768C16.5457 10.4471 16.5662 10.4073 16.5662 10.3657C16.5662 10.3242 16.5457 10.2843 16.5092 10.2547C16.4718 10.226 16.4219 10.21 16.3701 10.21C16.3182 10.21 16.2683 10.226 16.2309 10.2547L16.231 10.2546Z" fill="#211715"/>
<path d="M19.789 10.2298C19.9299 10.341 20.1076 10.4178 20.3012 10.4513C20.4403 10.4786 20.582 10.4961 20.7249 10.5037C20.8028 10.5081 20.8935 10.5045 20.9415 10.5582C21.0053 10.6393 21.0588 10.7254 21.1012 10.8151C21.1496 10.9028 21.194 10.9918 21.2386 11.081C21.3551 11.3134 21.467 11.5473 21.5831 11.7798C21.5983 11.8193 21.6318 11.8526 21.6768 11.873C21.7218 11.8934 21.7749 11.8993 21.8251 11.8895C21.8753 11.8782 21.9178 11.8515 21.9435 11.8154C21.9693 11.7792 21.9761 11.7365 21.9627 11.6963C21.8431 11.4576 21.728 11.2175 21.6084 10.9788C21.5205 10.7785 21.4109 10.5848 21.281 10.3996C21.2443 10.351 21.1952 10.309 21.1371 10.2763C21.0789 10.2437 21.0128 10.221 20.9431 10.2098C20.8186 10.1892 20.6904 10.1946 20.5658 10.1758C20.4936 10.1648 20.4216 10.1528 20.3509 10.1365C20.3263 10.131 20.3022 10.125 20.2782 10.1183C20.28 10.1188 20.2196 10.0997 20.243 10.108C20.203 10.0937 20.165 10.0762 20.1297 10.0556C20.1625 10.0748 20.1197 10.0484 20.1161 10.0457C20.0997 10.0331 20.0829 10.0205 20.0669 10.0073C19.8903 9.86197 19.6121 10.0842 19.7886 10.2295L19.789 10.2298Z" fill="#211715"/>
<path d="M9.81414 25.0427C9.83054 25.0433 9.84645 25.0444 9.86269 25.0452C9.81865 25.0428 9.85449 25.044 9.86646 25.046C9.89557 25.051 9.92436 25.056 9.95281 25.0631C9.96315 25.0657 9.97315 25.0689 9.98348 25.0714C10.0327 25.084 9.95011 25.0562 9.99603 25.0756C10.0249 25.0872 10.0529 25.0999 10.0801 25.1138C10.0801 25.1138 10.1222 25.1389 10.0992 25.1242C10.0762 25.1096 10.1163 25.1368 10.1163 25.1368C10.136 25.1516 10.1546 25.1672 10.1722 25.1836C10.1427 25.1566 10.1763 25.1887 10.1804 25.1937C10.188 25.2029 10.1951 25.2123 10.2019 25.2219C10.2088 25.2316 10.2149 25.2416 10.2211 25.2516C10.2017 25.2208 10.2265 25.2637 10.2293 25.2712C10.2395 25.2961 10.247 25.3215 10.2518 25.3474C10.2467 25.3186 10.2508 25.3447 10.2508 25.3501C10.2508 25.3656 10.2526 25.381 10.2524 25.3965C10.2506 25.408 10.2499 25.4195 10.2502 25.431C10.254 25.4536 10.2603 25.3983 10.2497 25.435C10.243 25.4589 10.2348 25.4826 10.2251 25.5058C10.2415 25.4679 10.2152 25.5189 10.2067 25.5302C10.1993 25.5398 10.1913 25.5488 10.1831 25.5579C10.2108 25.5275 10.1917 25.549 10.1831 25.5557C10.1647 25.5697 10.1473 25.5838 10.1279 25.5968C10.1327 25.5935 10.1634 25.5779 10.1346 25.5918C10.1188 25.5994 10.1037 25.6078 10.0875 25.6149C10.075 25.6206 10.0075 25.6433 10.059 25.628C10.037 25.6346 10.0151 25.6411 9.99242 25.6465C9.96979 25.6519 9.94691 25.6565 9.92378 25.6604C9.90984 25.6627 9.8959 25.6645 9.88188 25.6669C9.83792 25.6735 9.91919 25.6649 9.87819 25.6669C9.82766 25.6703 9.77691 25.6713 9.72623 25.6699C9.71286 25.6693 9.66956 25.6606 9.66062 25.6653C9.67703 25.6571 9.70163 25.6711 9.66653 25.6653C9.64676 25.6619 9.62725 25.6587 9.60789 25.6541C9.5942 25.6509 9.58083 25.6471 9.56746 25.6431C9.53786 25.6342 9.60527 25.6612 9.56008 25.6398C9.53548 25.6282 9.51088 25.6174 9.48751 25.6049C9.52326 25.6239 9.47931 25.5993 9.47439 25.5957C9.46389 25.5882 9.45372 25.5803 9.44388 25.5722C9.43404 25.5641 9.42477 25.5556 9.41551 25.5471C9.4429 25.5721 9.40599 25.5357 9.40099 25.5294C9.39328 25.5198 9.38598 25.5098 9.37926 25.5C9.37647 25.4959 9.35376 25.4549 9.36991 25.4875C9.35917 25.4658 9.35046 25.4435 9.34383 25.4208C9.34383 25.4218 9.33375 25.3764 9.33801 25.3998C9.34227 25.4231 9.33629 25.3765 9.33637 25.3775C9.33555 25.3628 9.33555 25.348 9.33637 25.3333C9.33637 25.3268 9.34457 25.2844 9.33768 25.3147C9.34408 25.2855 9.35383 25.2569 9.36679 25.2291C9.35187 25.261 9.37327 25.2204 9.37614 25.216C9.38434 25.204 9.39386 25.193 9.40271 25.1814C9.42945 25.1464 9.37713 25.1998 9.41305 25.171C9.42477 25.1616 9.43552 25.1514 9.44765 25.1424C9.45979 25.1335 9.47225 25.1246 9.48505 25.1162C9.45126 25.1374 9.49095 25.1143 9.49891 25.1102C9.52683 25.0962 9.55592 25.0837 9.586 25.0729C9.54385 25.0883 9.5933 25.0713 9.6001 25.0695C9.61552 25.0651 9.63116 25.0613 9.64701 25.0579C9.66287 25.0546 9.67866 25.0516 9.69441 25.0489C9.70491 25.0471 9.71549 25.0456 9.72606 25.0443C9.70278 25.0465 9.69859 25.0469 9.71335 25.0456C9.74714 25.0456 9.7806 25.0419 9.81455 25.0425C9.86675 25.0425 9.91681 25.0259 9.95372 24.9965C9.99063 24.967 10.0114 24.9271 10.0114 24.8854C10.0114 24.8438 9.99063 24.8038 9.95372 24.7744C9.91681 24.7449 9.86675 24.7283 9.81455 24.7283C9.64118 24.7216 9.46936 24.7573 9.32209 24.8306C9.17481 24.9039 9.05911 25.0113 8.99047 25.1386C8.92735 25.2781 8.92767 25.4308 8.99136 25.5702C9.05505 25.7095 9.17807 25.8266 9.33891 25.9009C9.60347 26.0199 9.95191 26.0056 10.2238 25.9104C10.3571 25.8643 10.4698 25.7869 10.5469 25.6886C10.6365 25.5619 10.6671 25.414 10.6333 25.271C10.5737 24.9503 10.2032 24.742 9.81455 24.7283C9.76246 24.7286 9.71261 24.7453 9.67578 24.7747C9.63895 24.8041 9.6181 24.8439 9.61773 24.8854C9.61876 24.9268 9.63976 24.9662 9.67635 24.9955C9.71295 25.0248 9.76231 25.0417 9.81414 25.0427Z" fill="#211715"/>
<path d="M19.4595 13.7808C20.1429 13.7967 20.9179 13.7843 21.3492 13.29C21.675 12.9165 21.7428 12.2582 21.2889 11.9287C21.2106 11.8859 21.1219 11.8566 21.0286 11.8428C20.9351 11.82 20.8407 11.7999 20.7455 11.7825C20.5609 11.749 20.3739 11.7247 20.1855 11.7098C19.8059 11.6794 19.4229 11.6912 19.0473 11.7449C18.727 11.79 18.3345 11.8395 18.1474 12.0751C18.017 12.2525 17.9576 12.4576 17.9773 12.6627C17.9982 12.9688 18.1586 13.2583 18.4284 13.4765C18.7034 13.6824 19.0899 13.7699 19.4594 13.7811C19.7127 13.7889 19.7123 13.4747 19.4594 13.467C19.1669 13.4581 18.8425 13.3871 18.6455 13.2035C18.5441 13.1071 18.4678 12.9955 18.4211 12.8752C18.3744 12.755 18.3583 12.6285 18.3737 12.5032C18.3857 12.4336 18.4087 12.3654 18.4422 12.3003C18.5023 12.1933 18.5497 12.1734 18.6827 12.1397C19.0497 12.0476 19.4327 12.0028 19.8174 12.0073C20.2537 12.0129 20.686 12.0751 21.0973 12.1913L21.0105 12.1509C21.3238 12.4073 21.2517 12.8809 20.9934 13.1494C20.6427 13.514 19.9718 13.479 19.4594 13.4671C19.2061 13.4608 19.2064 13.7749 19.4595 13.7808Z" fill="#211715"/>
<path d="M14.1513 12.1907C14.7445 12.0204 15.3805 11.9671 16.0052 12.0353C16.1644 12.0544 16.3218 12.0819 16.4765 12.1175C16.5495 12.1307 16.6208 12.1491 16.6897 12.1724C16.7111 12.1857 16.7307 12.2007 16.7482 12.2173C16.8431 12.3347 16.8893 12.473 16.8803 12.6126C16.8731 12.8228 16.7807 13.0254 16.6169 13.19C16.4582 13.3471 16.2068 13.4225 15.9643 13.4541C15.6774 13.4847 15.387 13.4871 15.0994 13.4614C14.8397 13.4424 14.5582 13.3842 14.3618 13.2398C14.0142 12.9846 13.8869 12.4376 14.238 12.1503C14.415 12.0055 14.1369 11.7832 13.9597 11.9282C13.5309 12.2791 13.5583 12.8889 13.8917 13.2807C14.3108 13.7731 15.0772 13.7983 15.7541 13.7815C16.0807 13.7825 16.4007 13.7084 16.6759 13.568C16.9504 13.4045 17.1441 13.1692 17.2231 12.9032C17.2962 12.69 17.2894 12.4644 17.2036 12.2543C17.1635 12.1477 17.0928 12.0502 16.9971 11.9693C16.8754 11.8754 16.704 11.8417 16.5453 11.8065C15.7212 11.6317 14.8501 11.66 14.0465 11.8878C13.9969 11.8998 13.9549 11.9265 13.9293 11.9625C13.9037 11.9984 13.8964 12.0409 13.909 12.081C13.9233 12.121 13.9567 12.1549 14.002 12.1754C14.0473 12.1959 14.1009 12.2014 14.1513 12.1907Z" fill="#211715"/>
<path d="M17.2911 12.6908C17.3321 12.6745 17.2465 12.7034 17.2916 12.6902C17.3065 12.6858 17.3217 12.682 17.3369 12.6786C17.3691 12.6717 17.4017 12.6662 17.4346 12.6619C17.4492 12.6599 17.4772 12.6608 17.4212 12.663C17.4288 12.663 17.4365 12.6615 17.4441 12.6608C17.4636 12.6591 17.4831 12.6578 17.5027 12.6567C17.5431 12.6546 17.5836 12.6536 17.624 12.6538C17.6627 12.6538 17.7013 12.6551 17.7399 12.6576C17.7597 12.6587 17.7795 12.6602 17.7993 12.662C17.8137 12.6633 17.8427 12.6697 17.7876 12.6604C17.795 12.6617 17.8028 12.6621 17.8102 12.6631C17.8458 12.6675 17.8812 12.6732 17.916 12.6804C17.9304 12.6834 17.9445 12.6866 17.9586 12.6902C17.975 12.6945 18.0331 12.714 17.9661 12.6908C18.0125 12.7107 18.0665 12.7164 18.1178 12.7067C18.1671 12.6955 18.2092 12.6698 18.2354 12.6347C18.2802 12.5669 18.2657 12.4546 18.1648 12.4198C17.9931 12.3644 17.8092 12.3372 17.624 12.3399C17.4414 12.3331 17.2594 12.3604 17.0924 12.4198C17.0476 12.441 17.0151 12.4754 17.0018 12.5157C16.9886 12.5559 16.9958 12.5986 17.0218 12.6347C17.049 12.6699 17.0922 12.6954 17.1423 12.7059C17.1924 12.7164 17.2457 12.711 17.2911 12.691V12.6908Z" fill="#211715"/>
<path d="M21.7385 12.5088C21.7458 12.5061 21.7532 12.5036 21.7605 12.5011L21.7135 12.5169C21.8427 12.4721 21.9774 12.4381 22.1154 12.4156C22.1647 12.4046 22.2069 12.3788 22.233 12.3436C22.2593 12.3069 22.2665 12.2634 22.2529 12.2225C22.2391 12.1831 22.2067 12.1495 22.1627 12.1287C22.1161 12.1091 22.0623 12.1035 22.011 12.1128C21.8485 12.1399 21.6904 12.1818 21.5398 12.2377C21.4956 12.2584 21.4632 12.2921 21.4496 12.3316C21.436 12.3725 21.4431 12.4159 21.4695 12.4526C21.4956 12.4878 21.5377 12.5136 21.5871 12.5246L21.6394 12.5302C21.6743 12.5302 21.7086 12.5228 21.7387 12.5088H21.7385Z" fill="#211715"/>
<path d="M13.6591 12.2371C13.5086 12.1813 13.3505 12.1394 13.188 12.1123C13.1367 12.1022 13.0826 12.1079 13.0363 12.1281C13.0139 12.1385 12.9944 12.1523 12.9788 12.1688C12.9631 12.1852 12.9517 12.2039 12.9452 12.2239C12.9386 12.2439 12.937 12.2646 12.9405 12.2851C12.9441 12.3055 12.9526 12.3252 12.9656 12.343C12.9914 12.3785 13.0337 12.4044 13.0833 12.415C13.2213 12.4376 13.356 12.4715 13.4852 12.5164L13.4382 12.5006C13.4455 12.503 13.4528 12.5056 13.4601 12.5082C13.482 12.5195 13.5073 12.5259 13.5333 12.5269C13.5593 12.5315 13.5864 12.5306 13.6118 12.5241C13.6611 12.5129 13.7031 12.4872 13.7294 12.4521C13.7426 12.4339 13.7511 12.4139 13.7545 12.3931C13.7579 12.3724 13.7561 12.3513 13.7492 12.3311C13.7428 12.3114 13.7315 12.293 13.716 12.2768C13.7005 12.2607 13.6811 12.2472 13.659 12.2371H13.6591Z" fill="#211715"/>
<path d="M16.8227 15.213C17.0979 15.3263 17.4043 15.3827 17.714 15.377C18.0293 15.3754 18.3523 15.3273 18.6054 15.1699C18.6421 15.1403 18.6626 15.1004 18.6626 15.0588C18.6626 15.0172 18.6421 14.9773 18.6054 14.9477C18.5679 14.9192 18.5181 14.9033 18.4663 14.9033C18.4145 14.9033 18.3646 14.9192 18.3271 14.9477C18.3845 14.9121 18.3312 14.9442 18.3166 14.9517C18.2983 14.961 18.2795 14.9697 18.2602 14.9778C18.2486 14.9828 18.1847 15.0051 18.23 14.9906C18.2044 14.9988 18.1785 15.0064 18.1523 15.0131C18.0011 15.0507 17.8431 15.0675 17.6848 15.063C17.5338 15.0655 17.3833 15.0493 17.2385 15.015C17.21 15.0085 17.1822 15.0002 17.1542 14.9924C17.145 14.9899 17.1361 14.9867 17.1269 14.984C17.1762 14.9983 17.1342 14.9865 17.1248 14.983C17.0899 14.9699 17.0556 14.9562 17.0215 14.9418C16.9762 14.9217 16.9229 14.9163 16.8727 14.9268C16.8225 14.9373 16.7794 14.9629 16.7523 14.9982C16.7264 15.0343 16.7194 15.077 16.7326 15.1172C16.7458 15.1573 16.7782 15.1918 16.8229 15.2131L16.8227 15.213Z" fill="#211715"/>
<path d="M17.6321 13.5183C17.6741 13.6393 17.7077 13.7619 17.7328 13.8858L17.7257 13.8441C17.7287 13.8609 17.7293 13.8779 17.7275 13.8948L17.7345 13.853C17.7331 13.8608 17.7307 13.8685 17.7275 13.8759L17.7473 13.8384C17.7445 13.8435 17.7411 13.8484 17.7372 13.853L17.768 13.8212C17.7635 13.8256 17.7585 13.8296 17.753 13.8331L17.7928 13.8085C17.7811 13.8143 17.7689 13.8195 17.7563 13.8239L17.8033 13.8081C17.7836 13.8148 17.763 13.8196 17.7419 13.8224L17.7942 13.8168C17.7751 13.8186 17.7559 13.8186 17.7368 13.8168L17.7891 13.8224C17.7674 13.82 17.746 13.8159 17.7243 13.8134C17.673 13.8039 17.6191 13.8095 17.5726 13.8292C17.5503 13.8396 17.5308 13.8534 17.5151 13.8699C17.4995 13.8863 17.4881 13.905 17.4815 13.925C17.475 13.945 17.4734 13.9658 17.4769 13.9862C17.4804 14.0066 17.489 14.0263 17.502 14.0441C17.5145 14.0619 17.5314 14.0774 17.5516 14.0897C17.5718 14.1021 17.5949 14.1111 17.6196 14.1161C17.6656 14.1211 17.7103 14.1305 17.7571 14.1322C17.826 14.1326 17.8939 14.1198 17.9554 14.0951C17.9936 14.0816 18.0275 14.0613 18.0546 14.0359C18.0817 14.0105 18.1012 13.9805 18.1117 13.9483C18.1254 13.8948 18.1247 13.8397 18.1095 13.7865C18.0844 13.6682 18.0502 13.5509 18.012 13.4347C17.9981 13.3945 17.9648 13.3604 17.9194 13.3398C17.874 13.3193 17.8202 13.3139 17.7699 13.325C17.7196 13.3361 17.6768 13.3626 17.651 13.3989C17.6252 13.4351 17.6185 13.478 17.6324 13.5182L17.6321 13.5183Z" fill="#211715"/>
<path d="M15.1592 12.4864C15.0823 12.6859 15.1324 13.1447 15.6059 13.1837C16.2317 13.1808 16.265 12.626 16.0543 12.3652C15.8819 12.1514 15.3747 12.0626 15.1592 12.4864Z" fill="#211715"/>
<path d="M20.1704 12.4865C20.2474 12.6859 20.1973 13.1447 19.7237 13.1837C19.098 13.1807 19.0647 12.6261 19.2753 12.3652C19.4477 12.1514 19.9549 12.0626 20.1704 12.4865Z" fill="#211715"/>
</svg>
