<svg width="20" height="20" viewBox="0 0 20 20" fill="none" xmlns="http://www.w3.org/2000/svg">
<g clip-path="url(#clip0_1702_19464)">
<path d="M5.49811 2.20353C6.82133 1.43809 8.35761 1 9.99621 1C14.9647 1 18.9924 5.02774 18.9924 9.99621C18.9924 14.9647 14.9647 18.9924 9.99621 18.9924C5.02774 18.9924 1 14.9647 1 9.99621C1 8.35761 1.43809 6.82133 2.20353 5.49811" stroke="#F98347" stroke-width="1.5" stroke-linecap="round"/>
<g clip-path="url(#clip1_1702_19464)">
<path d="M9.99669 11.2466C10.687 11.2466 11.2467 10.6869 11.2467 9.99658C11.2467 9.30623 10.687 8.74658 9.99669 8.74658C9.30633 8.74658 8.74669 9.30623 8.74669 9.99658C8.74669 10.6869 9.30633 11.2466 9.99669 11.2466Z" stroke="#F98347" stroke-width="0.6"/>
<path d="M11.0375 7.9139L11.6625 7.08057L11.0375 7.9139Z" fill="#F98347"/>
<path d="M11.0375 7.9139L11.6625 7.08057" stroke="#F98347" stroke-width="0.7" stroke-linecap="round"/>
<path d="M12.9118 7.91374L13.3284 7.49707L12.9118 7.91374Z" fill="#F98347"/>
<path d="M12.9118 7.91374L13.3284 7.49707" stroke="#F98347" stroke-width="0.7" stroke-linecap="round"/>
<path d="M9.99637 7.08073L9.5797 6.66406L9.99637 7.08073Z" fill="#F98347"/>
<path d="M9.99637 7.08073L9.5797 6.66406" stroke="#F98347" stroke-width="0.7" stroke-linecap="round"/>
<path d="M9.37167 7.91357L8.80249 8.06609L9.37167 7.91357Z" fill="#F98347"/>
<path d="M9.37167 7.91357L8.80249 8.06609" stroke="#F98347" stroke-width="0.7" stroke-linecap="round"/>
<path d="M7.91383 7.08073L7.49716 6.66406L7.91383 7.08073Z" fill="#F98347"/>
<path d="M7.91383 7.08073L7.49716 6.66406" stroke="#F98347" stroke-width="0.7" stroke-linecap="round"/>
<path d="M7.82732 8.8067L7.58347 8.27026L7.82732 8.8067Z" fill="#F98347"/>
<path d="M7.82732 8.8067L7.58347 8.27026" stroke="#F98347" stroke-width="0.7" stroke-linecap="round"/>
<path d="M10.2047 14.1614L10.219 14.4734C10.3342 14.4681 10.4372 14.3998 10.4867 14.2956C10.5363 14.1914 10.5244 14.0684 10.4558 13.9756L10.2047 14.1614ZM14.0059 11.1278L13.8033 11.3656C13.8844 11.4346 13.995 11.4577 14.0968 11.4267C14.1987 11.3957 14.2778 11.315 14.3066 11.2125L14.0059 11.1278ZM12.7387 11.9216L12.4875 12.1074C12.5416 12.1805 12.6248 12.2264 12.7155 12.2332C12.8062 12.2399 12.8953 12.2068 12.9596 12.1425L12.7387 11.9216ZM12.7809 11.8794L13.0018 12.1003C13.0732 12.0289 13.1057 11.9274 13.089 11.8278L12.7809 11.8794ZM11.0873 13.033L10.9935 13.331C11.1045 13.366 11.2258 13.3363 11.3082 13.2539L11.0873 13.033ZM11.1645 12.9559L11.3853 13.1768C11.4947 13.0674 11.5076 12.8945 11.4156 12.7701L11.1645 12.9559ZM6.25658 12.4591C6.35159 12.6031 6.54535 12.6428 6.68936 12.5478C6.83336 12.4528 6.87308 12.259 6.77807 12.115L6.25658 12.4591ZM8.31522 13.4639C8.16004 13.3885 7.97313 13.4532 7.89774 13.6084C7.82235 13.7635 7.88703 13.9504 8.04222 14.0258L8.31522 13.4639ZM6.14371 9.99627C6.14371 7.86848 7.86862 6.14356 9.99641 6.14356V5.5188C7.52358 5.5188 5.51894 7.52343 5.51894 9.99627H6.14371ZM9.99641 6.14356C12.1242 6.14356 13.8491 7.86848 13.8491 9.99627H14.4739C14.4739 7.52343 12.4693 5.5188 9.99641 5.5188V6.14356ZM10.4558 13.9756C10.3587 13.8444 10.3724 13.5745 10.5753 13.4244L10.2038 12.9221C9.73864 13.2661 9.64026 13.9235 9.95351 14.3471L10.4558 13.9756ZM11.3384 12.6658C11.2154 12.4994 11.2402 12.1557 11.5647 11.9157L11.1933 11.4133C10.6827 11.7909 10.4463 12.5101 10.8361 13.0372L11.3384 12.6658ZM11.5647 11.9157C11.8892 11.6757 12.2252 11.7526 12.3482 11.919L12.8505 11.5475C12.4607 11.0204 11.7038 11.0357 11.1933 11.4133L11.5647 11.9157ZM13.2971 11.4116C13.504 11.2585 13.7141 11.2895 13.8033 11.3656L14.2086 10.8901C13.8475 10.5823 13.308 10.6264 12.9256 10.9092L13.2971 11.4116ZM13.8491 9.99627C13.8491 10.3596 13.7989 10.7106 13.7053 11.0432L14.3066 11.2125C14.4157 10.8254 14.4739 10.4174 14.4739 9.99627H13.8491ZM10.1904 13.8493C10.1347 13.8518 10.0804 13.849 9.99641 13.849V14.4737C10.0424 14.4737 10.1461 14.4767 10.219 14.4734L10.1904 13.8493ZM12.3482 11.919L12.4875 12.1074L12.9899 11.7359L12.8505 11.5475L12.3482 11.919ZM13.089 11.8278C13.0699 11.7135 13.1254 11.5385 13.2971 11.4116L12.9256 10.9092C12.5962 11.1528 12.4089 11.5488 12.4728 11.931L13.089 11.8278ZM12.9596 12.1425L13.0018 12.1003L12.5601 11.6585L12.5178 11.7007L12.9596 12.1425ZM10.5753 13.4244C10.7241 13.3144 10.8857 13.2971 10.9935 13.331L11.1811 12.7351C10.8617 12.6345 10.4946 12.707 10.2038 12.9221L10.5753 13.4244ZM10.8361 13.0372L10.9133 13.1416L11.4156 12.7701L11.3384 12.6658L10.8361 13.0372ZM11.3082 13.2539L11.3853 13.1768L10.9436 12.735L10.8664 12.8122L11.3082 13.2539ZM6.77807 12.115C6.3771 11.5073 6.14371 10.7795 6.14371 9.99627H5.51894C5.51894 10.9055 5.79032 11.7524 6.25658 12.4591L6.77807 12.115ZM9.99641 13.849C9.39302 13.849 8.82288 13.7105 8.31522 13.4639L8.04222 14.0258C8.6331 14.3129 9.29643 14.4737 9.99641 14.4737V13.849Z" fill="#F98347"/>
<path d="M5.83112 10.4126C5.83112 10.4126 6.7478 11.2456 7.49716 11.2456C8.00196 11.2456 8.5827 10.8676 8.90798 10.6209" stroke="#F98347" stroke-width="0.7"/>
<path d="M11.6626 11.4542C11.4542 11.2459 11.0256 11.0954 10.8292 10.9224L11.6626 11.4542Z" fill="#F98347"/>
<path d="M11.6626 11.4542C11.4542 11.2459 11.0256 11.0954 10.8292 10.9224" stroke="#F98347" stroke-width="0.7"/>
<path d="M11.9329 8.73682L11.9605 9.32544L11.9329 8.73682Z" fill="#F98347"/>
<path d="M11.9329 8.73682L11.9605 9.32544" stroke="#F98347" stroke-width="0.7" stroke-linecap="round"/>
<path d="M13.6108 9.19849L12.9116 9.81428L13.6108 9.19849Z" fill="#F98347"/>
<path d="M13.6108 9.19849L12.9116 9.81428" stroke="#F98347" stroke-width="0.7" stroke-linecap="round"/>
<path d="M7.35754 10.2633L7.70555 9.78784L7.35754 10.2633Z" fill="#F98347"/>
<path d="M7.35754 10.2633L7.70555 9.78784" stroke="#F98347" stroke-width="0.7" stroke-linecap="round"/>
<path d="M6.5321 9.30903L6.49932 8.7207L6.5321 9.30903Z" fill="#F98347"/>
<path d="M6.5321 9.30903L6.49932 8.7207" stroke="#F98347" stroke-width="0.7" stroke-linecap="round"/>
</g>
</g>
<defs>
<clipPath id="clip0_1702_19464">
<rect width="19.9924" height="19.9924" fill="white"/>
</clipPath>
<clipPath id="clip1_1702_19464">
<rect width="9.99621" height="9.99621" fill="white" transform="translate(4.99811 4.99805)"/>
</clipPath>
</defs>
</svg>
