<svg width="32" height="32" viewBox="0 0 32 32" fill="none" xmlns="http://www.w3.org/2000/svg">
<path d="M16 22.6667V14.6667" stroke="#0C031B" stroke-width="2" stroke-linecap="round"/>
<path d="M16 9.33333C16.7363 9.33333 17.3333 9.93029 17.3333 10.6667C17.3333 11.403 16.7363 12 16 12C15.2636 12 14.6666 11.403 14.6666 10.6667C14.6666 9.93029 15.2636 9.33333 16 9.33333Z" fill="#0C031B"/>
<path d="M9.33341 4.45057C11.2946 3.3161 13.5715 2.66681 16.0001 2.66681C23.3638 2.66681 29.3334 8.63634 29.3334 16.0001C29.3334 23.3639 23.3638 29.3335 16.0001 29.3335C8.63628 29.3335 2.66675 23.3639 2.66675 16.0001C2.66675 13.5716 3.31604 11.2946 4.45051 9.33348" stroke="#0C031B" stroke-width="2" stroke-linecap="round"/>
</svg>
