<svg width="20" height="20" viewBox="0 0 20 20" fill="none" xmlns="http://www.w3.org/2000/svg">
<path d="M2.5 1.6665V18.3332" stroke="#0C031B" stroke-width="1.2" stroke-linecap="round"/>
<path d="M17.5 8.33317V18.3332M17.5 1.6665V4.99984" stroke="#0C031B" stroke-width="1.2" stroke-linecap="round"/>
<path d="M6.66663 12.5002V13.3335C6.66663 14.9048 6.66663 15.6905 7.15478 16.1787C7.64293 16.6668 8.42863 16.6668 9.99996 16.6668C11.5713 16.6668 12.357 16.6668 12.8451 16.1787C13.3333 15.6905 13.3333 14.9048 13.3333 13.3335V6.66683C13.3333 5.09549 13.3333 4.3098 12.8451 3.82165C12.357 3.3335 11.5713 3.3335 9.99996 3.3335C8.42863 3.3335 7.64293 3.3335 7.15478 3.82165C6.66663 4.3098 6.66663 5.09548 6.66663 6.66683V9.16683" stroke="#0C031B" stroke-width="1.2" stroke-linecap="round"/>
</svg>
