<svg width="20" height="21" viewBox="0 0 20 21" fill="none" xmlns="http://www.w3.org/2000/svg">
<path d="M12.5 10.6957H5M5 10.6957L6.66667 12.3624M5 10.6957L6.66667 9.02905" stroke="#E9DFFB" stroke-width="1.2" stroke-linecap="round" stroke-linejoin="round"/>
<path d="M10 19.0146C8.70542 18.9756 7.93329 18.8311 7.39887 18.2967C6.75856 17.6564 6.67818 16.6748 6.66809 14.8623M13.3333 19.0276C15.1458 19.0175 16.1274 18.9371 16.7677 18.2967C17.5 17.5645 17.5 16.386 17.5 14.029V12.3623V9.02897V7.3623C17.5 5.00528 17.5 3.82677 16.7677 3.09454C16.0355 2.3623 14.857 2.3623 12.5 2.3623H11.6667C9.30958 2.3623 8.13111 2.3623 7.39887 3.09454C6.75856 3.73485 6.67818 4.71645 6.66809 6.52897" stroke="#E9DFFB" stroke-width="1.2" stroke-linecap="round"/>
<path d="M2.5 8.61234V12.779C2.5 14.7432 2.5 15.7253 3.11019 16.3355C3.72039 16.9457 4.70248 16.9457 6.66667 16.9457M3.11019 5.05587C3.72039 4.44568 4.70248 4.44568 6.66667 4.44568" stroke="#E9DFFB" stroke-width="1.2" stroke-linecap="round"/>
</svg>
