<svg width="55" height="72" viewBox="0 0 55 72" fill="none" xmlns="http://www.w3.org/2000/svg">
<g clip-path="url(#clip0_1178_4333)">
<path d="M55 70H0V72H55V70Z" fill="#0C031B"/>
<path d="M8.49751 43.3659V44.8081H5.16916V54.758H3.33763V44.8081H0V43.3659H8.49751ZM22.585 54.758L21.488 52.0993H15.6121L14.5151 54.758H12.5906L17.4344 43.3659H19.6657L24.5096 54.758H22.585ZM16.1888 50.6974H20.9117L18.5503 44.9529L16.1888 50.6974ZM34.2185 54.911C31.4759 54.911 29.4677 53.775 29.0215 51.8415L30.9088 51.4547C31.2063 52.7841 32.5358 53.5494 34.2836 53.5494C35.6874 53.5494 37.0355 53.05 37.0076 51.6803C36.989 50.3267 35.2969 49.9562 33.5026 49.5292C31.4666 49.0458 29.4305 48.4899 29.4305 46.3951C29.4305 44.2762 31.448 43.2128 33.8373 43.2128C36.1523 43.2128 38.2348 44.0587 38.7273 46.0165L36.933 46.4113C36.6076 45.1464 35.3897 44.5824 33.9208 44.5824C32.6006 44.5824 31.2898 45.0819 31.2898 46.3791C31.2898 47.5553 32.7587 47.9018 34.4228 48.2885C36.5147 48.7799 38.9133 49.3439 38.9133 51.632C38.9133 53.9362 36.6823 54.911 34.2185 54.911ZM52.6289 54.758L48.0176 49.5613H46.8833V54.758H45.0332V43.3659H46.8833V48.1274H47.999L52.4802 43.3659H54.7487L49.5983 48.7961L55 54.758H52.6289Z" fill="#0C031B"/>
<path d="M5.03447 57.6506H6.15263V64.5356H5.03447V61.5168H1.1294V64.5356H0V57.6506H1.1294V60.6549H5.03447V57.6506ZM15.577 64.5356L14.914 62.9288H11.3628L10.6998 64.5356H9.53664L12.4641 57.6506H13.8127L16.7402 64.5356H15.577ZM11.7113 62.0815H14.5657L13.1385 58.6097L11.7113 62.0815ZM24.4061 64.5356L22.3496 61.4388H21.237V64.5356H20.1189V57.6506H22.7935C24.4567 57.6506 25.2152 58.5319 25.2152 59.6129C25.2152 60.5721 24.5634 61.2392 23.4734 61.3999L25.7153 64.5356L24.4061 64.5356ZM21.2369 58.488V60.6986H22.6416C23.6755 60.6986 24.1418 60.2506 24.1418 59.5982C24.1418 58.9554 23.6755 58.488 22.6416 58.488H21.2369ZM33.0549 60.9324C33.9933 61.1369 34.6226 61.6969 34.6226 62.6561C34.6226 63.7615 33.7573 64.5357 32.3301 64.5357H29.2061V57.6506H31.6447C33.1112 57.6506 34.0383 58.3908 34.0383 59.4815C34.0383 60.1339 33.6955 60.6695 33.0549 60.9324ZM32.9931 59.5445C32.9931 58.9505 32.4986 58.4879 31.6389 58.4879H30.2904V60.6304H31.8131C32.5324 60.6304 32.9931 60.1435 32.9931 59.5445ZM32.1392 63.6835C33.0439 63.6835 33.5327 63.1576 33.5327 62.5587C33.5327 61.9257 33.0214 61.4193 32.0718 61.4193H30.2906V63.6835H32.1392ZM41.7097 64.6281C39.4565 64.6281 37.737 63.2842 37.737 61.0883C37.737 58.8971 39.4564 57.5581 41.7097 57.5581C43.9516 57.5581 45.6766 58.8971 45.6766 61.0883C45.6766 63.2843 43.9516 64.6281 41.7097 64.6281ZM41.7097 63.7176C43.2998 63.7176 44.5585 62.7632 44.5585 61.0882C44.5585 59.4277 43.2998 58.4735 41.7097 58.4735C40.1139 58.4735 38.8497 59.4278 38.8497 61.0882C38.8497 62.7632 40.1139 63.7176 41.7097 63.7176ZM53.6908 64.5356L51.6343 61.4388H50.5217V64.5356H49.4036V57.6506H52.0782C53.7414 57.6506 54.4999 58.5319 54.4999 59.6129C54.4999 60.5721 53.8481 61.2392 52.7581 61.3999L55 64.5356L53.6908 64.5356ZM50.5216 58.488V60.6986H51.9263C52.9602 60.6986 53.4265 60.2506 53.4265 59.5982C53.4265 58.9554 52.9602 58.488 51.9263 58.488H50.5216Z" fill="#5418C3"/>
<path d="M31.4186 3H24.5814L7 30M31.4186 3L49 30L45.093 35M31.4186 3L17.7442 24.5H24.1111M7 30H35.3256L28 19M7 30L10.4186 35H45.093M28 19L31.4186 14L45.093 35M28 19L24.1111 24.5M24.1111 24.5H31.4186" stroke="#E9DFFB" stroke-width="1.5" stroke-linecap="round" stroke-linejoin="round"/>
</g>
<defs>
<clipPath id="clip0_1178_4333">
<rect width="55" height="72" fill="white"/>
</clipPath>
</defs>
</svg>
