<svg width="20" height="20" viewBox="0 0 20 20" fill="none" xmlns="http://www.w3.org/2000/svg">
<g clip-path="url(#clip0_1711_2626)">
<path d="M10 10C11.3807 10 12.5 8.88071 12.5 7.5C12.5 6.11929 11.3807 5 10 5C8.61929 5 7.5 6.11929 7.5 7.5C7.5 8.88071 8.61929 10 10 10Z" stroke="white" stroke-width="1.5"/>
<path d="M14.9743 16.6667C14.8417 14.2571 14.1039 12.5 9.99992 12.5C5.89601 12.5 5.15826 14.2571 5.02563 16.6667" stroke="white" stroke-width="1.5" stroke-linecap="round"/>
<path d="M5.83341 2.78151C7.05914 2.07246 8.48225 1.66666 10.0001 1.66666C14.6024 1.66666 18.3334 5.39761 18.3334 9.99999C18.3334 14.6023 14.6024 18.3333 10.0001 18.3333C5.39771 18.3333 1.66675 14.6023 1.66675 9.99999C1.66675 8.48216 2.07256 7.05905 2.7816 5.83332" stroke="white" stroke-width="1.5" stroke-linecap="round"/>
</g>
<defs>
<clipPath id="clip0_1711_2626">
<rect width="20" height="20" fill="white"/>
</clipPath>
</defs>
</svg>
