<svg width="151" height="150" viewBox="0 0 151 150" fill="none" xmlns="http://www.w3.org/2000/svg">
<path d="M80.9407 50.1432C77.3081 48.5809 78.731 40.9631 80.359 38.8874C81.987 36.8117 85.0987 35.9053 88.5336 37.6557C91.9686 39.406 92.8195 42.2951 91.3774 45.3555C89.9352 48.4159 84.5732 51.7055 80.9407 50.1432Z" fill="#C5BAD9" stroke="#C5BAD9" stroke-width="3" stroke-linecap="round"/>
<path d="M22.2446 64.7727C21.4573 59.3172 24.0162 51.7631 25.591 46.5174C27.1658 41.2718 29.1343 37.9145 31.4965 35.1866C33.8586 32.4587 39.3849 27.267 47.0475 27.0032C54.71 26.7394 65.7481 35.816 69.0945 40.6422C72.4408 45.4684 76.3778 50.2943 81.8896 54.2812C87.4015 58.2681 99.0207 61.9503 101.968 66.0317C104.916 70.1131 107.283 78.6214 107.086 83.6575C106.889 88.6935 101.575 96.8768 97.047 98.7653C92.5194 100.654 86.8108 101.493 82.4802 100.654C78.1496 99.8145 75.1967 94.3587 70.2756 92.0507C65.3545 89.7427 56.8898 87.0147 47.4412 85.7558C37.9925 84.4969 34.4491 84.2869 30.3154 81.5592C26.1816 78.8315 23.0319 70.2282 22.2446 64.7727Z" fill="#C5BAD9" stroke="#C5BAD9" stroke-width="4" stroke-linecap="round" stroke-linejoin="round"/>
<path d="M94.4314 65.2398C92.0983 64.907 90.3102 66.3677 90.1747 68.2071C90.0393 70.0465 90.6955 70.8439 91.9483 71.7679C93.2012 72.6919 95.6739 73.2679 96.9144 72.0646C98.155 70.8614 98.6458 69.8487 98.3333 68.2071C98.0208 66.5655 96.7645 65.5726 94.4314 65.2398Z" fill="white" stroke="white" stroke-width="3" stroke-linecap="round"/>
<path d="M62.5986 66.4513L65.9451 69.8086M69.2915 64.353V69.1791M75.9843 66.4513L72.2442 69.8086" stroke="#ED2424" stroke-width="2" stroke-linecap="round"/>
<path d="M56.2992 76.1036H48.819M48.819 76.1036L42.5198 68.7595H54.9213L61.2204 76.1036M48.819 76.1036V96.0375H61.2204M28.1499 96.0375H32.0869M35.6301 96.0375H45.2757M91.9288 96.0375H101.771M72.4408 89.3229C75.119 87.555 76.3233 87.8806 77.9525 90.5819M61.2204 76.1036H74.0156M61.2204 76.1036V96.0375M74.0156 76.1036L79.921 68.7595H94.2909L88.1886 76.1036M74.0156 76.1036H88.1886M88.1886 76.1036V96.0375H61.2204" stroke="#5418C3" stroke-width="3" stroke-linecap="round" stroke-linejoin="round"/>
<rect x="49.4253" y="28.0032" width="9.8109" height="10.5898" stroke="#5418C3" stroke-width="2" stroke-dasharray="8 8"/>
<path d="M64.3701 29.9408H81.6928M64.3701 37.075H77.1653" stroke="#5418C3" stroke-width="3" stroke-linecap="round"/>
<rect x="49.4253" y="46.8879" width="9.8109" height="10.5898" stroke="#5418C3" stroke-width="2" stroke-dasharray="8 8"/>
<path d="M64.3701 48.8256H81.6928M64.3701 55.9598H77.1653" stroke="#5418C3" stroke-width="3" stroke-linecap="round"/>
<path d="M95.0028 55.8759C94.3771 54.755 96.0772 53.1251 96.8485 52.9296C97.6197 52.7341 98.5526 53.13 99.096 54.2586C99.6395 55.3872 99.34 56.2841 98.4408 56.7644C97.5416 57.2447 95.6286 56.9969 95.0028 55.8759Z" fill="#C5BAD9" stroke="#C5BAD9" stroke-width="3" stroke-linecap="round"/>
<path d="M41.77 36.2356C41.77 37.0261 41.18 37.5839 40.5515 37.5839C39.9229 37.5839 39.333 37.0261 39.333 36.2356C39.333 35.4451 39.9229 34.8873 40.5515 34.8873C41.18 34.8873 41.77 35.4451 41.77 36.2356Z" stroke="#ED2424" stroke-width="1.5"/>
<path d="M87.4389 60.1563C87.4389 60.9468 86.849 61.5046 86.2204 61.5046C85.5919 61.5046 85.002 60.9468 85.002 60.1563C85.002 59.3658 85.5919 58.808 86.2204 58.808C86.849 58.808 87.4389 59.3658 87.4389 60.1563Z" stroke="#ED2424" stroke-width="1.5"/>
<path d="M29.2539 74.821V69.2898H30.6523V74.821H29.2539ZM27.1875 72.7546V71.3562H32.7188V72.7546H27.1875Z" fill="#ED2424"/>
<path d="M85.5527 49.6414V44.1101H86.9512V49.6414H85.5527ZM83.4863 47.575V46.1765H89.0176V47.575H83.4863Z" fill="#ED2424"/>
<path d="M80.7083 82.3984C80.7083 83.5572 79.827 84.4967 78.7398 84.4967C77.6526 84.4967 76.7713 83.5572 76.7713 82.3984C76.7713 81.2395 77.6526 80.3 78.7398 80.3C79.827 80.3 80.7083 81.2395 80.7083 82.3984Z" fill="#5418C3"/>
<ellipse cx="72.0471" cy="82.3984" rx="1.96848" ry="2.09831" fill="#5418C3"/>
<path fill-rule="evenodd" clip-rule="evenodd" d="M118.679 65.0284C118.679 94.6047 94.7023 118.581 65.1259 118.581C35.5496 118.581 11.5732 94.6047 11.5732 65.0284C11.5732 35.452 35.5496 11.4756 65.1259 11.4756C94.7023 11.4756 118.679 35.452 118.679 65.0284ZM106.875 114.887C95.5793 124.356 81.0184 130.057 65.1259 130.057C29.2118 130.057 0.0976562 100.943 0.0976562 65.0284C0.0976562 29.1142 29.2118 0 65.1259 0C101.04 0 130.154 29.1142 130.154 65.0284C130.154 80.9183 124.455 95.4771 114.989 106.772L148.417 140.2C150.658 142.441 150.658 146.074 148.417 148.315C146.176 150.555 142.543 150.555 140.303 148.315L106.875 114.887Z" fill="#BA9BF3"/>
</svg>
