<svg width="220" height="182" viewBox="0 0 220 182" fill="none" xmlns="http://www.w3.org/2000/svg">
<path d="M151.511 58.0088C142.284 54.2861 145.898 36.1339 150.034 31.1877C154.169 26.2415 162.073 24.0817 170.797 28.2526C179.522 32.4235 181.684 39.3079 178.021 46.6004C174.357 53.8929 160.738 61.7315 151.511 58.0088Z" fill="#C5BAD9" stroke="#C5BAD9" stroke-width="3" stroke-linecap="round"/>
<path d="M2.42204 92.8691C0.422276 79.8694 6.92204 61.8689 10.922 49.3691C14.922 36.8694 19.9222 28.8694 25.922 22.3691C31.9219 15.8689 45.9589 3.49771 65.422 2.86913C84.8851 2.24055 112.922 23.8689 121.422 35.3691C129.922 46.8693 139.922 58.3689 153.922 67.8691C167.922 77.3694 197.435 86.1437 204.922 95.8691C212.409 105.595 218.422 125.869 217.922 137.869C217.422 149.869 203.922 169.369 192.422 173.869C180.922 178.369 166.422 180.369 155.422 178.369C144.422 176.369 136.922 163.369 124.422 157.869C111.922 152.369 90.4218 145.869 66.422 142.869C42.4223 139.869 33.4218 139.369 22.922 132.869C12.4223 126.369 4.4218 105.869 2.42204 92.8691Z" fill="#C5BAD9" stroke="#C5BAD9" stroke-width="4" stroke-linecap="round" stroke-linejoin="round"/>
<path d="M185.778 93.9822C179.852 93.1891 175.31 96.6699 174.966 101.053C174.622 105.436 176.289 107.336 179.471 109.538C182.654 111.74 188.934 113.112 192.085 110.245C195.236 107.378 196.483 104.965 195.689 101.053C194.896 97.1413 191.705 94.7753 185.778 93.9822Z" fill="white" stroke="white" stroke-width="3" stroke-linecap="round"/>
<path d="M104.922 96.8691L113.422 104.869M121.922 91.8691V103.369M138.922 96.8691L129.422 104.869" stroke="#ED2424" stroke-width="4" stroke-linecap="round"/>
<path d="M88.9221 119.869H69.9221M69.9221 119.869L53.9221 102.369H85.4221L101.422 119.869M69.9221 119.869V167.369H101.422M17.4221 167.369H27.4221M36.4221 167.369H60.9221M179.422 167.369H204.422M129.922 151.369C136.725 147.156 139.784 147.932 143.922 154.369M101.422 119.869H133.922M101.422 119.869V167.369M133.922 119.869L148.922 102.369H185.422L169.922 119.869M133.922 119.869H169.922M169.922 119.869V167.369H101.422" stroke="#5418C3" stroke-width="4" stroke-linecap="round" stroke-linejoin="round"/>
<rect x="69.9221" y="3.86914" width="28" height="28" stroke="#5418C3" stroke-width="2" stroke-dasharray="8 8"/>
<path d="M109.422 9.86914H153.422M109.422 26.8691H141.922" stroke="#5418C3" stroke-width="4" stroke-linecap="round"/>
<rect x="69.9221" y="48.8691" width="28" height="28" stroke="#5418C3" stroke-width="2" stroke-dasharray="8 8"/>
<path d="M109.422 54.8691H153.422M109.422 71.8691H141.922" stroke="#5418C3" stroke-width="4" stroke-linecap="round"/>
<path d="M187.23 71.6693C185.641 68.9983 189.959 65.1144 191.918 64.6485C193.877 64.1827 196.247 65.126 197.627 67.8154C199.008 70.5047 198.247 72.642 195.963 73.7864C193.679 74.9309 188.82 74.3404 187.23 71.6693Z" fill="#C5BAD9" stroke="#C5BAD9" stroke-width="3" stroke-linecap="round"/>
<circle cx="48.9219" cy="24.8689" r="4.25" stroke="#ED2424" stroke-width="1.5"/>
<circle cx="164.922" cy="81.8689" r="4.25" stroke="#ED2424" stroke-width="1.5"/>
<path d="M22.2777 107.159V98.1082H24.5661V107.159H22.2777ZM18.8963 103.778V101.49H27.9474V103.778H18.8963Z" fill="#ED2424"/>
<path d="M165.278 47.1594V38.1082H167.566V47.1594H165.278ZM161.896 43.778V41.4896H170.947V43.778H161.896Z" fill="#ED2424"/>
<path d="M150.922 134.869C150.922 137.63 148.683 139.869 145.922 139.869C143.16 139.869 140.922 137.63 140.922 134.869C140.922 132.107 143.16 129.869 145.922 129.869C148.683 129.869 150.922 132.107 150.922 134.869Z" fill="#5418C3"/>
<circle cx="128.922" cy="134.869" r="5" fill="#5418C3"/>
</svg>
