<svg width="27" height="26" viewBox="0 0 27 26" fill="none" xmlns="http://www.w3.org/2000/svg">
<path d="M24.3334 12.7811C24.3334 9.92934 24.3334 8.50347 23.4997 7.57665C23.4231 7.49141 23.342 7.41026 23.2567 7.33359C22.3298 6.5 20.9041 6.5 18.0523 6.5H17.6475C16.3976 6.5 15.7727 6.5 15.1905 6.33402C14.8705 6.24282 14.5621 6.11511 14.2715 5.95339C13.7424 5.65898 13.3005 5.2171 12.4167 4.33334L11.8205 3.73723C11.5243 3.44103 11.3763 3.29292 11.2206 3.16389C10.5496 2.60763 9.72639 2.26665 8.85855 2.1855C8.65726 2.16667 8.44781 2.16667 8.02892 2.16667C7.07284 2.16667 6.5948 2.16667 6.19661 2.2418C4.44369 2.57253 3.07255 3.94367 2.74182 5.69659C2.66669 6.09478 2.66669 6.57283 2.66669 7.5289M24.3239 17.3333C24.285 20.0196 24.0858 21.5424 23.0641 22.5641C21.795 23.8333 19.7522 23.8333 15.6667 23.8333H11.3334C7.24784 23.8333 5.2051 23.8333 3.93589 22.5641C2.66669 21.295 2.66669 19.2521 2.66669 15.1667V11.9167" stroke="#BA9BF3" stroke-width="1.8" stroke-linecap="round"/>
</svg>
