<svg width="16" height="16" viewBox="0 0 16 16" fill="none" xmlns="http://www.w3.org/2000/svg">
<path d="M6.33337 13.1667C6.60951 13.1667 6.83337 12.9428 6.83337 12.6667C6.83337 12.3905 6.60951 12.1667 6.33337 12.1667V13.1667ZM7.33337 3.33333V3.83333C7.53557 3.83333 7.71791 3.71151 7.79531 3.52467C7.87271 3.33784 7.82991 3.12278 7.68691 2.97978L7.33337 3.33333ZM6.35359 1.64644C6.15833 1.45118 5.84175 1.45118 5.64649 1.64644C5.45123 1.8417 5.45123 2.15829 5.64649 2.35355L6.35359 1.64644ZM0.833374 8C0.833374 8.27613 1.05723 8.5 1.33337 8.5C1.60951 8.5 1.83337 8.27613 1.83337 8H0.833374ZM2.57998 10.3806C2.42199 10.1541 2.11031 10.0986 1.88383 10.2566C1.65735 10.4146 1.60182 10.7263 1.75981 10.9527L2.57998 10.3806ZM6.33337 12.1667H6.00023V13.1667H6.33337V12.1667ZM6.00004 3.83333H7.33337V2.83333H6.00004V3.83333ZM7.68691 2.97978L6.35359 1.64644L5.64649 2.35355L6.97984 3.68688L7.68691 2.97978ZM1.83337 8C1.83337 5.69881 3.69885 3.83333 6.00004 3.83333V2.83333C3.14657 2.83333 0.833374 5.14652 0.833374 8H1.83337ZM1.75981 10.9527C2.69266 12.29 4.24407 13.1667 6.00023 13.1667V12.1667C4.58473 12.1667 3.33383 11.4613 2.57998 10.3806L1.75981 10.9527Z" fill="white"/>
<path d="M8.66663 12.6666V12.1666C8.46443 12.1666 8.2821 12.2884 8.2047 12.4753C8.1273 12.6621 8.1701 12.8771 8.3131 13.0201L8.66663 12.6666ZM9.64643 14.3535C9.8417 14.5487 10.1582 14.5487 10.3535 14.3535C10.5488 14.1582 10.5488 13.8417 10.3535 13.6464L9.64643 14.3535ZM9.66663 2.83325C9.3905 2.83325 9.16663 3.05711 9.16663 3.33325C9.16663 3.60939 9.3905 3.83325 9.66663 3.83325V2.83325ZM15.1666 7.99992C15.1666 7.72378 14.9428 7.49992 14.6666 7.49992C14.3905 7.49992 14.1666 7.72378 14.1666 7.99992H15.1666ZM13.4201 5.6193C13.578 5.84579 13.8898 5.90132 14.1162 5.74334C14.3427 5.58536 14.3982 5.27369 14.2402 5.0472L13.4201 5.6193ZM9.99997 12.1666H8.66663V13.1666H9.99997V12.1666ZM8.3131 13.0201L9.64643 14.3535L10.3535 13.6464L9.02017 12.3131L8.3131 13.0201ZM9.66663 3.83325H9.99997V2.83325H9.66663V3.83325ZM14.1666 7.99992C14.1666 10.3011 12.3012 12.1666 9.99997 12.1666V13.1666C12.8534 13.1666 15.1666 10.8534 15.1666 7.99992H14.1666ZM14.2402 5.0472C13.3075 3.7099 11.7561 2.83325 9.99997 2.83325V3.83325C11.4154 3.83325 12.6663 4.53863 13.4201 5.6193L14.2402 5.0472Z" fill="white"/>
</svg>
