<svg width="20" height="20" viewBox="0 0 20 20" fill="none" xmlns="http://www.w3.org/2000/svg">
<path fill-rule="evenodd" clip-rule="evenodd" d="M15.5 8.5C15.5 12.366 12.366 15.5 8.5 15.5C4.63401 15.5 1.5 12.366 1.5 8.5C1.5 4.63401 4.63401 1.5 8.5 1.5C12.366 1.5 15.5 4.63401 15.5 8.5ZM13.9571 15.0171C12.4806 16.2548 10.5773 17 8.5 17C3.80558 17 0 13.1944 0 8.5C0 3.80558 3.80558 0 8.5 0C13.1944 0 17 3.80558 17 8.5C17 10.577 16.255 12.48 15.0177 13.9564L19.3872 18.3259C19.6801 18.6188 19.6801 19.0936 19.3872 19.3865C19.0943 19.6794 18.6194 19.6794 18.3265 19.3865L13.9571 15.0171Z" fill="#0C031B"/>
</svg>
