<svg width="32" height="32" viewBox="0 0 32 32" fill="none" xmlns="http://www.w3.org/2000/svg">
<path d="M16 20C18.2091 20 20 18.2091 20 16C20 13.7909 18.2091 12 16 12C13.7909 12 12 13.7909 12 16C12 18.2091 13.7909 20 16 20Z" stroke="#0C031B" stroke-width="2"/>
<path d="M4.88166 14.1856C5.51173 14.5815 5.91713 15.2559 5.91713 15.9999C5.91712 16.744 5.51172 17.4184 4.88166 17.8143C4.45292 18.0836 4.17668 18.299 3.98014 18.5551C3.5496 19.1163 3.35958 19.8254 3.4519 20.5266C3.52113 21.0524 3.83176 21.5904 4.45301 22.6666C5.07428 23.7426 5.3849 24.2806 5.80572 24.6035C6.36681 25.034 7.07596 25.224 7.77716 25.1318C8.0972 25.0896 8.42174 24.958 8.86932 24.7215C9.52729 24.3738 10.3141 24.3599 10.9586 24.732C11.6031 25.1042 11.9844 25.7924 12.0122 26.536C12.0311 27.042 12.0795 27.389 12.203 27.6872C12.4737 28.3406 12.9928 28.8598 13.6462 29.1304C14.1363 29.3334 14.7575 29.3334 16 29.3334C17.2426 29.3334 17.8638 29.3334 18.3539 29.1304C19.0072 28.8598 19.5264 28.3406 19.7971 27.6872C19.9206 27.389 19.969 27.042 19.9879 26.5362C20.0156 25.7924 20.397 25.1042 21.0415 24.732C21.6859 24.36 22.4727 24.3739 23.1306 24.7216C23.5783 24.9582 23.9028 25.0898 24.2228 25.1319C24.924 25.2243 25.6332 25.0342 26.1943 24.6036C26.6151 24.2808 26.9258 23.7427 27.5471 22.6667C27.8236 22.1876 28.0387 21.8152 28.1982 21.503M27.1183 17.8144C26.4883 17.4186 26.083 16.7442 26.0828 16.0002C26.0828 15.256 26.4883 14.5815 27.1183 14.1856C27.5471 13.9163 27.8232 13.701 28.0198 13.4448C28.4503 12.8837 28.6403 12.1746 28.548 11.4734C28.4788 10.9475 28.1682 10.4095 27.5468 9.33342C26.9256 8.25737 26.615 7.71935 26.1942 7.39645C25.6331 6.9659 24.9239 6.77589 24.2227 6.86819C23.9027 6.91034 23.5782 7.04189 23.1306 7.27846C22.4726 7.62621 21.6858 7.64007 21.0414 7.26797C20.397 6.89589 20.0156 6.20762 19.9879 5.46406C19.969 4.95805 19.9206 4.61115 19.7971 4.31286C19.5264 3.65946 19.0072 3.14033 18.3539 2.86967C17.8638 2.66669 17.2426 2.66669 16 2.66669C14.7575 2.66669 14.1363 2.66669 13.6462 2.86967C12.9928 3.14033 12.4737 3.65946 12.203 4.31286C12.0795 4.61113 12.0311 4.95799 12.0122 5.46394C11.9844 6.20757 11.603 6.8959 10.9586 7.26797C10.3141 7.64005 9.52734 7.62614 8.86944 7.27842C8.42181 7.04183 8.09724 6.91027 7.77717 6.86813C7.07597 6.77582 6.36682 6.96583 5.80573 7.39638C5.38492 7.71929 5.07429 8.25731 4.45302 9.33335C4.17645 9.81241 3.96144 10.1848 3.80188 10.497" stroke="#0C031B" stroke-width="2" stroke-linecap="round"/>
</svg>
