<svg width="20" height="20" viewBox="0 0 20 20" fill="none" xmlns="http://www.w3.org/2000/svg">
<path d="M3.33325 10.0003C3.33325 11.1509 4.26599 12.0837 5.41659 12.0837C6.56718 12.0837 7.49992 11.1509 7.49992 10.0003C7.49992 8.84974 6.56718 7.91699 5.41659 7.91699" stroke="#0C031B" stroke-width="1.5" stroke-linecap="round"/>
<path d="M11.6667 5.41699L7.5 8.33366" stroke="#0C031B" stroke-width="1.5" stroke-linecap="round"/>
<path d="M11.6667 14.5837L7.5 11.667" stroke="#0C031B" stroke-width="1.5" stroke-linecap="round"/>
<path d="M13.7501 17.4997C14.9007 17.4997 15.8334 16.5669 15.8334 15.4163C15.8334 14.2658 14.9007 13.333 13.7501 13.333C12.5995 13.333 11.6667 14.2658 11.6667 15.4163" stroke="#0C031B" stroke-width="1.5" stroke-linecap="round"/>
<path d="M15.5542 5.62535C14.9788 6.62179 13.7047 6.9632 12.7082 6.3879C11.7118 5.81261 11.3704 4.53846 11.9457 3.54201C12.521 2.54557 13.7952 2.20416 14.7916 2.77946" stroke="#0C031B" stroke-width="1.5" stroke-linecap="round"/>
</svg>
