<svg width="20" height="20" viewBox="0 0 20 20" fill="none" xmlns="http://www.w3.org/2000/svg">
<path d="M7.15317 3.40838C8.41976 1.13613 9.05317 0 10 0C10.9468 0 11.5802 1.13613 12.8468 3.40838L13.1746 3.99624C13.5345 4.64193 13.7145 4.96479 13.9951 5.17781C14.2756 5.39082 14.6252 5.46991 15.3241 5.62805L15.9605 5.77202C18.4201 6.32859 19.65 6.60682 19.9426 7.54776C20.2352 8.48859 19.3967 9.46906 17.7199 11.4299L17.2861 11.9372C16.8095 12.4945 16.5713 12.7731 16.4641 13.1178C16.3569 13.4624 16.3929 13.8341 16.4651 14.5775L16.5306 15.2544C16.7841 17.8706 16.9108 19.1787 16.1448 19.7602C15.3788 20.3418 14.2273 19.8115 11.9243 18.7512L11.3285 18.4768C10.6741 18.1755 10.3468 18.0248 10 18.0248C9.65317 18.0248 9.32588 18.1755 8.67153 18.4768L8.07564 18.7512C5.77267 19.8115 4.62117 20.3418 3.85515 19.7602C3.08912 19.1787 3.21588 17.8706 3.4694 15.2544L3.53499 14.5775C3.60702 13.8341 3.64304 13.4624 3.53586 13.1178C3.42868 12.7731 3.19042 12.4945 2.71392 11.9372L2.28009 11.4299C0.603245 9.46906 -0.235178 8.48859 0.0574223 7.54776C0.35001 6.60682 1.57986 6.32859 4.03954 5.77202L4.67588 5.62805C5.37484 5.46991 5.72433 5.39082 6.00494 5.17781C6.28555 4.96479 6.46553 4.64194 6.82547 3.99624L7.15317 3.40838Z" fill="#F98347"/>
</svg>
