<svg width="16" height="16" viewBox="0 0 16 16" fill="none" xmlns="http://www.w3.org/2000/svg">
<path d="M5.72254 2.7267C6.73581 0.908904 7.24254 0 8 0C8.75746 0 9.26418 0.908904 10.2775 2.7267L10.5397 3.19699C10.8276 3.71354 10.9716 3.97183 11.196 4.14225C11.4205 4.31266 11.7001 4.37593 12.2593 4.50244L12.7684 4.61762C14.7361 5.06287 15.72 5.28546 15.9541 6.03821C16.1881 6.79087 15.5174 7.57525 14.1759 9.14391L13.8289 9.54974C13.4476 9.99558 13.257 10.2184 13.1713 10.4942C13.0855 10.7699 13.1143 11.0673 13.172 11.662L13.2245 12.2035C13.4273 14.2965 13.5287 15.343 12.9159 15.8082C12.3031 16.2734 11.3818 15.8492 9.53948 15.0009L9.06277 14.7815C8.53929 14.5404 8.27746 14.4199 8 14.4199C7.72254 14.4199 7.4607 14.5404 6.93722 14.7815L6.46052 15.0009C4.61813 15.8492 3.69694 16.2734 3.08412 15.8082C2.47129 15.343 2.5727 14.2965 2.77552 12.2035L2.82799 11.662C2.88562 11.0673 2.91444 10.7699 2.82869 10.4942C2.74294 10.2184 2.55234 9.99558 2.17113 9.54974L1.82407 9.14391C0.482596 7.57525 -0.188142 6.79087 0.0459378 6.03821C0.280008 5.28546 1.26389 5.06287 3.23163 4.61762L3.7407 4.50244C4.29988 4.37593 4.57946 4.31266 4.80395 4.14225C5.02844 3.97183 5.17242 3.71355 5.46037 3.19699L5.72254 2.7267Z" fill="black"/>
</svg>
