<svg width="20" height="20" viewBox="0 0 20 20" fill="none" xmlns="http://www.w3.org/2000/svg">
<path d="M4.14898 5.26211C2.49408 5.92407 1.66663 6.25505 1.66663 6.66634C1.66663 7.07763 2.49408 7.40862 4.14898 8.07057L6.48938 9.00676C8.14428 9.66867 8.97171 9.99967 9.99996 9.99967C11.0282 9.99967 11.8556 9.66867 13.5105 9.00676L15.851 8.07057C17.5059 7.40862 18.3333 7.07763 18.3333 6.66634C18.3333 6.25505 17.5059 5.92407 15.851 5.26211L13.5105 4.32595C11.8556 3.66399 11.0282 3.33301 9.99996 3.33301C9.20504 3.33301 8.53004 3.53084 7.49996 3.92652" stroke="white" stroke-width="1.5" stroke-linecap="round"/>
<path d="M4.80507 8.33301L4.14898 8.59542C2.49408 9.25742 1.66663 9.58842 1.66663 9.99967C1.66663 10.4109 2.49408 10.7419 4.14898 11.4039L6.48938 12.3401C8.14428 13.002 8.97171 13.333 9.99996 13.333C11.0282 13.333 11.8556 13.002 13.5105 12.3401L15.851 11.4039C17.5059 10.7419 18.3333 10.4109 18.3333 9.99967C18.3333 9.58842 17.5059 9.25742 15.851 8.59542L15.1949 8.33301" stroke="white" stroke-width="1.5"/>
<path d="M15.851 14.7379C17.5059 14.0759 18.3333 13.7449 18.3333 13.3337C18.3333 12.9224 17.5059 12.5914 15.851 11.9294L15.1949 11.667M4.80507 11.667L4.14898 11.9294C2.49408 12.5914 1.66663 12.9224 1.66663 13.3337C1.66663 13.7449 2.49408 14.0759 4.14898 14.7379L6.48938 15.6741C8.14428 16.336 8.97171 16.667 9.99996 16.667C10.7949 16.667 11.4699 16.4692 12.5 16.0735" stroke="white" stroke-width="1.5" stroke-linecap="round"/>
</svg>
