<svg width="27" height="26" viewBox="0 0 27 26" fill="none" xmlns="http://www.w3.org/2000/svg">
<path d="M11.875 15.1667H18.9167" stroke="#BA9BF3" stroke-width="1.8" stroke-linecap="round"/>
<path d="M8.08331 15.1667H8.62498" stroke="#BA9BF3" stroke-width="1.8" stroke-linecap="round"/>
<path d="M8.08331 11.375H8.62498H8.08331Z" fill="#BA9BF3"/>
<path d="M8.08331 11.375H8.62498" stroke="#BA9BF3" stroke-width="1.8" stroke-linecap="round"/>
<path d="M8.08331 18.9583H8.62498" stroke="#BA9BF3" stroke-width="1.8" stroke-linecap="round"/>
<path d="M11.875 11.375H18.9167" stroke="#BA9BF3" stroke-width="1.8" stroke-linecap="round"/>
<path d="M11.875 18.9583H18.9167" stroke="#BA9BF3" stroke-width="1.8" stroke-linecap="round"/>
<path d="M9.16669 3.79167C9.16669 2.89421 9.89422 2.16667 10.7917 2.16667H16.2084C17.1058 2.16667 17.8334 2.89421 17.8334 3.79167V4.87501C17.8334 5.77247 17.1058 6.50001 16.2084 6.50001H10.7917C9.89422 6.50001 9.16669 5.77247 9.16669 4.87501V3.79167Z" stroke="#BA9BF3" stroke-width="1.8"/>
<path d="M23.25 17.3336C23.25 20.3977 23.25 21.9298 22.2981 22.8816C21.3462 23.8336 19.8141 23.8336 16.75 23.8336H10.25C7.18587 23.8336 5.65381 23.8336 4.7019 22.8816C3.75 21.9298 3.75 20.3977 3.75 17.3336V14.0836M17.8333 4.33545C20.1896 4.34857 21.4656 4.45306 22.2981 5.28547C23.25 6.23737 23.25 7.76944 23.25 10.8336V13.0002M9.16667 4.33545C6.81038 4.34857 5.53432 4.45306 4.7019 5.28547C3.86951 6.11786 3.765 7.39387 3.75188 9.75" stroke="#BA9BF3" stroke-width="1.8" stroke-linecap="round"/>
</svg>
