<svg width="20" height="20" viewBox="0 0 20 20" fill="none" xmlns="http://www.w3.org/2000/svg">
<path d="M7.64209 3.33366C7.98529 2.36267 8.9113 1.66699 9.9998 1.66699C11.0884 1.66699 12.0144 2.36267 12.3575 3.33366" stroke="#0C031B" stroke-width="1.5" stroke-linecap="round"/>
<path d="M17.0833 5H2.9165" stroke="#0C031B" stroke-width="1.5" stroke-linecap="round"/>
<path d="M15.3113 12.8323C15.1638 15.0447 15.09 16.1509 14.3692 16.8253C13.6484 17.4997 12.5397 17.4997 10.3224 17.4997H9.67787C7.46054 17.4997 6.35187 17.4997 5.63103 16.8253C4.91019 16.1509 4.83644 15.0447 4.68895 12.8323L4.30566 7.08301M15.6945 7.08301L15.5279 9.58301" stroke="#0C031B" stroke-width="1.5" stroke-linecap="round"/>
<path d="M7.9165 9.16699L8.33317 13.3337" stroke="#0C031B" stroke-width="1.5" stroke-linecap="round"/>
<path d="M12.0832 9.16699L11.6665 13.3337" stroke="#0C031B" stroke-width="1.5" stroke-linecap="round"/>
</svg>
