<svg width="22" height="22" viewBox="0 0 22 22" fill="none" xmlns="http://www.w3.org/2000/svg">
<path d="M8.15317 4.40838C9.41976 2.13613 10.0532 1 11 1C11.9468 1 12.5802 2.13613 13.8468 4.40838L14.1746 4.99624C14.5345 5.64193 14.7145 5.96479 14.9951 6.17781C15.2756 6.39082 15.6252 6.46991 16.3241 6.62805L16.9605 6.77202C19.4201 7.32859 20.65 7.60682 20.9426 8.54776C21.2352 9.48859 20.3967 10.4691 18.7199 12.4299L18.2861 12.9372C17.8095 13.4945 17.5713 13.7731 17.4641 14.1178C17.3569 14.4624 17.3929 14.8341 17.4651 15.5775L17.5306 16.2544C17.7841 18.8706 17.9108 20.1787 17.1448 20.7602C16.3788 21.3418 15.2273 20.8115 12.9243 19.7512L12.3285 19.4768C11.6741 19.1755 11.3468 19.0248 11 19.0248C10.6532 19.0248 10.3259 19.1755 9.67153 19.4768L9.07564 19.7512C6.77267 20.8115 5.62117 21.3418 4.85515 20.7602C4.08912 20.1787 4.21588 18.8706 4.4694 16.2544L4.53499 15.5775C4.60702 14.8341 4.64304 14.4624 4.53586 14.1178C4.42868 13.7731 4.19042 13.4945 3.71392 12.9372L3.28009 12.4299C1.60325 10.4691 0.764822 9.48859 1.05742 8.54776C1.35001 7.60682 2.57986 7.32859 5.03954 6.77202L5.67588 6.62805C6.37484 6.46991 6.72433 6.39082 7.00494 6.17781C7.28555 5.96479 7.46553 5.64194 7.82547 4.99624L8.15317 4.40838Z" stroke="#0C031B"/>
</svg>
