<svg width="27" height="26" viewBox="0 0 27 26" fill="none" xmlns="http://www.w3.org/2000/svg">
<path d="M11.3333 17.3333H13.5" stroke="#BA9BF3" stroke-width="1.3" stroke-linecap="round"/>
<path d="M15.0167 13.5417C15.0167 13.88 14.9241 14.1568 14.8085 14.3302C14.69 14.508 14.5975 14.5167 14.5833 14.5167C14.5691 14.5167 14.4767 14.508 14.3581 14.3302C14.2426 14.1568 14.15 13.88 14.15 13.5417C14.15 13.2034 14.2426 12.9265 14.3581 12.7532C14.4767 12.5753 14.5691 12.5667 14.5833 12.5667C14.5975 12.5667 14.69 12.5753 14.8085 12.7532C14.9241 12.9265 15.0167 13.2034 15.0167 13.5417Z" stroke="#BA9BF3" stroke-width="1.3"/>
<path d="M10.6833 13.5417C10.6833 13.88 10.5907 14.1569 10.4752 14.3302C10.3566 14.508 10.2642 14.5167 10.25 14.5167C10.2358 14.5167 10.1434 14.508 10.0248 14.3302C9.90925 14.1569 9.81666 13.88 9.81666 13.5417C9.81666 13.2034 9.90925 12.9265 10.0248 12.7532C10.1434 12.5753 10.2358 12.5667 10.25 12.5667C10.2642 12.5667 10.3566 12.5753 10.4752 12.7532C10.5907 12.9265 10.6833 13.2034 10.6833 13.5417Z" fill="#BA9BF3" stroke="#BA9BF3" stroke-width="1.3"/>
<path d="M18.9167 7.58333L16.75 9.74999" stroke="#BA9BF3" stroke-width="1.2" stroke-linecap="round"/>
<path d="M19.9795 2.54926C20.1807 2.03914 20.9026 2.03914 21.1038 2.54926L21.8127 4.34679C21.8742 4.50253 21.9975 4.62582 22.1532 4.68724L23.9507 5.39617C24.4608 5.59736 24.4608 6.31932 23.9507 6.5205L22.1532 7.22943C21.9975 7.29086 21.8742 7.41414 21.8127 7.56988L21.1038 9.36741C20.9026 9.87753 20.1807 9.87753 19.9795 9.36741L19.2706 7.56988C19.2092 7.41414 19.0859 7.29086 18.9301 7.22943L17.1326 6.5205C16.6225 6.31932 16.6225 5.59736 17.1326 5.39617L18.9301 4.68724C19.0859 4.62582 19.2092 4.50253 19.2706 4.34679L19.9795 2.54926Z" stroke="#BA9BF3" stroke-width="1.2"/>
<path d="M6.72916 8.67031C7.92424 7.97899 9.31174 7.58333 10.7917 7.58333C15.2789 7.58333 18.9167 11.2211 18.9167 15.7083C18.9167 20.1956 15.2789 23.8333 10.7917 23.8333C6.30434 23.8333 2.66666 20.1956 2.66666 15.7083C2.66666 14.2284 3.06232 12.841 3.75364 11.6458" stroke="#BA9BF3" stroke-width="1.3" stroke-linecap="round"/>
</svg>
