<svg width="20" height="20" viewBox="0 0 20 20" fill="none" xmlns="http://www.w3.org/2000/svg">
<rect width="20" height="20" rx="10" fill="#F98347"/>
<path d="M9.13378 10.7872L8.88059 6.99325C8.83109 6.22989 8.57124 4.9961 9.15282 4.37587C9.59542 3.89877 10.6434 3.81671 10.9613 4.47797C11.2316 5.25501 11.2914 6.09005 11.1345 6.89783L10.7957 10.8034C10.7811 11.171 10.7008 11.5329 10.5587 11.8721C10.5027 11.9818 10.4179 12.0741 10.3133 12.139C10.2088 12.2039 10.0886 12.2389 9.96562 12.2401C9.84268 12.2414 9.72174 12.209 9.61588 12.1463C9.51003 12.0836 9.42329 11.9931 9.36508 11.8845C9.23112 11.5331 9.15307 11.1628 9.13378 10.7872ZM10.0104 16C9.71026 15.9983 9.42203 15.882 9.20436 15.6748C8.98669 15.4676 8.85594 15.1851 8.83872 14.8847C8.8215 14.5843 8.9191 14.2886 9.11166 14.0577C9.30422 13.8269 9.57727 13.6783 9.87526 13.6421C10.0354 13.6227 10.1977 13.6364 10.3523 13.6823C10.5069 13.7282 10.6505 13.8054 10.7742 13.9091C10.8979 14.0128 10.9991 14.1409 11.0716 14.2853C11.144 14.4297 11.1861 14.5875 11.1954 14.7489C11.2046 14.9103 11.1808 15.0719 11.1253 15.2237C11.0699 15.3755 10.984 15.5143 10.873 15.6315C10.7619 15.7487 10.6281 15.8419 10.4798 15.9053C10.3314 15.9687 10.1717 16.0009 10.0104 16Z" fill="white"/>
</svg>
